<?xml version="1.0" encoding="UTF-8"?>
<svg version="1.1" xmlns="http://www.w3.org/2000/svg" width="425" height="425">
<path d="M0 0 C1.52269531 -0.00346032 3.04538811 -0.0082274 4.56807572 -0.01418173 C8.73568489 -0.02667011 12.90308717 -0.02053122 17.07069695 -0.01122308 C21.57180863 -0.00442399 26.0728852 -0.01491812 30.57398987 -0.02316284 C39.38537109 -0.03649351 48.19667558 -0.0336253 57.00805979 -0.02492492 C64.17071429 -0.01814574 71.33334732 -0.01723267 78.4960041 -0.02049637 C79.51600576 -0.02095607 80.53600742 -0.02141577 81.58691822 -0.0218894 C83.65914011 -0.02284859 85.73136199 -0.02382123 87.80358387 -0.02480717 C107.22922586 -0.03335923 126.65482536 -0.02353004 146.08046038 -0.00740607 C162.74116662 0.00599492 179.40181015 0.00367045 196.06251526 -0.01016235 C215.41779442 -0.02622489 234.77303634 -0.03253315 254.12832123 -0.02332556 C256.19316327 -0.02236993 258.25800532 -0.02142682 260.32284737 -0.02049637 C261.33874204 -0.02003354 262.35463672 -0.01957072 263.40131609 -0.01909386 C270.55316146 -0.01650585 277.70498317 -0.02087096 284.85682487 -0.02793503 C293.5757772 -0.03635779 302.29464851 -0.03405363 311.01359158 -0.0180928 C315.46039843 -0.01022024 319.90707033 -0.00710114 324.35387611 -0.01704025 C328.42814902 -0.02600882 332.50216245 -0.02101885 336.57641197 -0.0051076 C338.04669886 -0.0017689 339.51700787 -0.00343327 340.98728042 -0.01073496 C355.10241437 -0.07543178 365.48149753 2.21197728 375.85133362 12.13095093 C381.62540694 20.9618866 381.42414269 30.71136024 381.37477112 40.91610718 C381.37679719 42.40483238 381.37971305 43.8935566 381.38346863 45.38227844 C381.38786557 48.48618112 381.38154574 51.58982296 381.3674469 54.69369507 C381.35034131 58.64987186 381.36022126 62.60543849 381.37816429 66.56159306 C381.38906103 69.63046273 381.38552924 72.69919029 381.37778091 75.7680645 C381.37579591 77.22594718 381.37817763 78.68384325 381.38521957 80.14171028 C381.4244845 90.55027818 380.97073716 100.09810463 373.97633362 108.38095093 C368.79394306 112.71376926 363.55681923 115.15594291 357.04273987 116.83798218 C354.93438915 117.31641172 354.93438915 117.31641172 352.97633362 118.38095093 C350.99060362 118.47371119 349.00166482 118.4999659 347.01377201 118.49676132 C345.73468403 118.49711907 344.45559605 118.49747682 343.13774782 118.49784541 C341.70487885 118.49313523 340.27201019 118.48832616 338.83914185 118.48342896 C337.32732919 118.48188388 335.81551605 118.48077187 334.30370277 118.48005795 C330.13366306 118.476772 325.96365813 118.46712996 321.79363167 118.4564507 C317.30194022 118.44600723 312.81024218 118.44129428 308.31854248 118.43577576 C298.48764321 118.42253719 288.6567689 118.40167472 278.82588696 118.37921047 C272.68790151 118.36520189 266.54991358 118.35269246 260.41192436 118.34046173 C243.42070057 118.30633055 226.42948319 118.27031805 209.43827915 118.2273674 C207.80591388 118.22324533 207.80591388 118.22324533 206.14057153 118.21903999 C205.04969692 118.21628332 203.95882232 118.21352665 202.8348909 118.21068645 C200.62430736 118.20510105 198.41372381 118.19951864 196.20314026 118.19393921 C195.10661044 118.19117002 194.01008062 118.18840084 192.88032263 118.18554774 C175.12434373 118.14106369 157.36836888 118.10998876 139.61235321 118.08473942 C121.38623477 118.05863114 103.16016692 118.02136889 84.93409389 117.9729197 C74.69950458 117.9459721 64.46495463 117.92379841 54.23033333 117.91390228 C45.51195213 117.90541692 36.79366739 117.88671909 28.07533921 117.85479847 C23.6284712 117.83882025 19.18172833 117.82760363 14.73482895 117.82940102 C10.65896952 117.83093129 6.58338944 117.81859842 2.50759732 117.79550269 C1.03776556 117.78956438 -0.43209696 117.78858508 -1.90193336 117.79323408 C-10.42505537 117.81699023 -17.93306331 117.15995724 -26.02366638 114.38095093 C-26.02366638 113.72095093 -26.02366638 113.06095093 -26.02366638 112.38095093 C-26.74554138 112.15407593 -27.46741638 111.92720093 -28.21116638 111.69345093 C-33.40438187 109.26995037 -36.70918266 105.24933523 -39.18778992 100.11679077 C-41.12521631 93.77555669 -40.54664795 86.82936576 -40.48460388 80.25595093 C-40.48221561 78.58261253 -40.48131494 76.90927142 -40.48182678 75.2359314 C-40.47870923 71.73917706 -40.46222556 68.24283575 -40.43528748 64.7461853 C-40.40130937 60.28101508 -40.39365966 55.81629757 -40.39517784 51.35101318 C-40.39463201 47.89872986 -40.38363077 44.44654397 -40.36917496 40.99429321 C-40.36284498 39.34858943 -40.35887704 37.7028747 -40.35738754 36.05715942 C-40.35301371 33.75083922 -40.33542676 31.44498259 -40.31419373 29.13876343 C-40.30657013 27.83052612 -40.29894653 26.52228882 -40.29109192 25.17440796 C-39.9962121 20.99150923 -39.14943257 17.41135692 -38.02366638 13.38095093 C-37.38429138 13.27782593 -36.74491638 13.17470093 -36.08616638 13.06845093 C-35.06522888 12.72813843 -35.06522888 12.72813843 -34.02366638 12.38095093 C-33.69366638 11.39095093 -33.36366638 10.40095093 -33.02366638 9.38095093 C-31.27366638 7.88095093 -31.27366638 7.88095093 -29.02366638 6.38095093 C-27.94085388 5.63845093 -27.94085388 5.63845093 -26.83616638 4.88095093 C-18.05261364 0.19638946 -9.82656706 -0.04872022 0 0 Z " fill="#FEBE09" transform="translate(42.02366638183594,5.619049072265625)"/>
<path d="M0 0 C1.12768799 -0.00145523 2.25537598 -0.00291046 3.41723633 -0.00440979 C5.79413444 -0.00275471 8.1710437 0.00876247 10.54785156 0.02954102 C14.1755957 0.05849873 17.80187736 0.0501396 21.4296875 0.03710938 C23.74479873 0.04334733 26.05990537 0.05173871 28.375 0.0625 C29.99402222 0.05809654 29.99402222 0.05809654 31.64575195 0.05360413 C38.76072197 0.14225969 43.83816205 0.85187958 49.5625 5.37109375 C53.21006723 10.14098936 52.32948097 16.54476182 52.31689453 22.28295898 C52.31952301 23.75794357 52.31952301 23.75794357 52.32220459 25.26272583 C52.32661547 28.52673089 52.32368032 31.79068184 52.3203125 35.0546875 C52.32098752 37.35547394 52.32195919 39.65626031 52.32321167 41.95704651 C52.32468905 46.80511141 52.32253927 51.65315794 52.31787109 56.5012207 C52.31337802 61.39706644 52.3132377 66.29287511 52.31787109 71.1887207 C52.33305671 87.29164787 52.30017742 103.39352665 52.1875 119.49609375 C52.17776405 121.01217098 52.17776405 121.01217098 52.16783142 122.55887604 C52.12978084 128.08398687 52.06956743 133.60791348 51.97042465 139.13228035 C51.94364986 140.7500991 51.92320917 142.36803738 51.90967178 143.98602104 C51.88947817 146.17518289 51.84458078 148.36242272 51.79248047 150.55102539 C51.76225296 152.36142052 51.76225296 152.36142052 51.73141479 154.20838928 C50.98393893 158.72652292 48.99968408 162.01634612 45.44140625 164.921875 C39.0558463 168.26950112 33.68205294 168.66376413 26.5625 168.62109375 C25.71018799 168.61625977 24.85787598 168.61142578 23.97973633 168.60644531 C21.04877042 168.58041773 18.1182651 168.5390655 15.1875 168.49609375 C14.04490723 168.48352539 12.90231445 168.47095703 11.72509766 168.45800781 C8.10757833 168.41008069 4.49180354 168.33189294 0.875 168.24609375 C-0.27500488 168.2320752 -1.42500977 168.21805664 -2.60986328 168.20361328 C-9.15655208 168.0098444 -13.58503537 167.58776647 -18.8125 163.49609375 C-21.58451852 159.71391699 -22.18849277 157.0597669 -22.19345093 152.40592957 C-22.2019104 151.18215103 -22.21036987 149.9583725 -22.21908569 148.69750977 C-22.21325325 147.3493639 -22.20710877 146.00121935 -22.20068359 144.65307617 C-22.20475077 143.22690937 -22.21009348 141.80074571 -22.21661377 140.37458801 C-22.23027959 136.50662298 -22.22499085 132.63889828 -22.21547651 128.7709291 C-22.20787166 124.71742218 -22.21492823 120.6639356 -22.21963501 116.61042786 C-22.22509203 109.80038773 -22.21790433 102.99044522 -22.20361328 96.18041992 C-22.18730649 88.31932772 -22.19256107 80.4584692 -22.2090925 72.59738272 C-22.22273241 65.83965538 -22.22461422 59.08199816 -22.21677649 52.32426149 C-22.21211118 48.29203963 -22.21144316 44.25992735 -22.22138596 40.22771263 C-22.23008918 36.43306432 -22.22397294 32.63871523 -22.20670319 28.84409904 C-22.20275532 27.45582322 -22.2038431 26.06752196 -22.21049118 24.67925644 C-22.24246382 17.32088 -22.1864879 11.1317418 -18.8125 4.49609375 C-13.03516288 -0.34051306 -7.29782482 -0.07595659 0 0 Z " fill="#FEBE09" transform="translate(362.8125,246.50390625)"/>
<path d="M0 0 C1.12067871 0.02360596 2.24135742 0.04721191 3.39599609 0.0715332 C5.69969378 0.12534576 8.00314287 0.19115712 10.30615234 0.26904297 C13.53452913 0.37020654 16.7585558 0.4133128 19.98828125 0.44140625 C21.92973834 0.47924646 23.87115059 0.51948857 25.8125 0.5625 C26.69333252 0.56781738 27.57416504 0.57313477 28.48168945 0.57861328 C34.69182048 0.79828159 38.82688434 2.48933991 43.6875 6.375 C46.93756776 9.93959045 47.81712534 13.06082386 47.78515625 17.82421875 C47.78032227 19.09555664 47.78032227 19.09555664 47.77539062 20.39257812 C47.76282227 21.71418945 47.76282227 21.71418945 47.75 23.0625 C47.74548828 23.95517578 47.74097656 24.84785156 47.73632812 25.76757812 C47.72454983 27.97011987 47.70810164 30.17252599 47.6875 32.375 C48.3475 32.705 49.0075 33.035 49.6875 33.375 C49.6875 34.035 49.6875 34.695 49.6875 35.375 C49.0275 35.375 48.3675 35.375 47.6875 35.375 C48.6775 37.355 48.6775 37.355 49.6875 39.375 C49.3575 39.705 49.0275 40.035 48.6875 40.375 C48.31989269 42.70317964 47.98508419 45.0368385 47.6875 47.375 C48.3475 47.375 49.0075 47.375 49.6875 47.375 C49.6875 48.035 49.6875 48.695 49.6875 49.375 C49.0275 49.375 48.3675 49.375 47.6875 49.375 C47.73970703 50.78652344 47.73970703 50.78652344 47.79296875 52.2265625 C47.82003906 53.47179687 47.84710938 54.71703125 47.875 56 C47.92720703 57.84464844 47.92720703 57.84464844 47.98046875 59.7265625 C47.56898361 64.85092405 46.03393684 68.09942826 42.3125 71.625 C38.19080766 74.37279489 34.7029686 75.6203087 29.7487793 75.66552734 C28.79396164 75.67828705 27.83914398 75.69104675 26.85539246 75.70419312 C25.83448013 75.70641876 24.81356781 75.70864441 23.76171875 75.7109375 C22.70016068 75.7175943 21.6386026 75.7242511 20.5448761 75.73110962 C18.30150074 75.74122192 16.05809539 75.74592708 13.81469727 75.74560547 C10.39743971 75.74997133 6.98148172 75.78628734 3.56445312 75.82421875 C1.38021273 75.83008878 -0.80403377 75.83405692 -2.98828125 75.8359375 C-4.00312088 75.85030853 -5.01796051 75.86467957 -6.06355286 75.87948608 C-13.18799057 75.83402338 -18.82751592 74.74899732 -24.15234375 69.59375 C-24.69568359 68.74296875 -24.69568359 68.74296875 -25.25 67.875 C-25.82041016 67.02421875 -25.82041016 67.02421875 -26.40234375 66.15625 C-28.09851233 62.83670978 -28.43911886 59.66842864 -28.45776367 55.97705078 C-28.46414352 55.11580597 -28.47052338 54.25456116 -28.47709656 53.36721802 C-28.47820938 52.4442392 -28.4793222 51.52126038 -28.48046875 50.5703125 C-28.48379715 49.61357635 -28.48712555 48.65684021 -28.49055481 47.67111206 C-28.49561324 45.64874756 -28.49796347 43.62637473 -28.49780273 41.60400391 C-28.49998697 38.51841394 -28.51814804 35.43318288 -28.53710938 32.34765625 C-28.54004401 30.38020955 -28.54202834 28.41276116 -28.54296875 26.4453125 C-28.55015427 25.52638214 -28.55733978 24.60745178 -28.56474304 23.66067505 C-28.54015206 16.72650132 -27.50451387 11.10426812 -23.3125 5.375 C-16.03321842 0.33604024 -8.59830778 -0.31132479 0 0 Z " fill="#FEBF0A" transform="translate(39.3125,342.625)"/>
<path d="M0 0 C1.12067871 0.02360596 2.24135742 0.04721191 3.39599609 0.0715332 C5.69969378 0.12534576 8.00314287 0.19115712 10.30615234 0.26904297 C13.53452913 0.37020654 16.7585558 0.4133128 19.98828125 0.44140625 C21.92973834 0.47924646 23.87115059 0.51948857 25.8125 0.5625 C26.69333252 0.56781738 27.57416504 0.57313477 28.48168945 0.57861328 C34.69182048 0.79828159 38.82688434 2.48933991 43.6875 6.375 C46.93756776 9.93959045 47.81712534 13.06082386 47.78515625 17.82421875 C47.78032227 19.09555664 47.78032227 19.09555664 47.77539062 20.39257812 C47.76282227 21.71418945 47.76282227 21.71418945 47.75 23.0625 C47.74548828 23.95517578 47.74097656 24.84785156 47.73632812 25.76757812 C47.72454983 27.97011987 47.70810164 30.17252599 47.6875 32.375 C48.3475 32.705 49.0075 33.035 49.6875 33.375 C49.6875 34.035 49.6875 34.695 49.6875 35.375 C49.0275 35.375 48.3675 35.375 47.6875 35.375 C48.6775 37.355 48.6775 37.355 49.6875 39.375 C49.3575 39.705 49.0275 40.035 48.6875 40.375 C48.31989269 42.70317964 47.98508419 45.0368385 47.6875 47.375 C48.3475 47.375 49.0075 47.375 49.6875 47.375 C49.6875 48.035 49.6875 48.695 49.6875 49.375 C49.0275 49.375 48.3675 49.375 47.6875 49.375 C47.73970703 50.78652344 47.73970703 50.78652344 47.79296875 52.2265625 C47.82003906 53.47179687 47.84710938 54.71703125 47.875 56 C47.92720703 57.84464844 47.92720703 57.84464844 47.98046875 59.7265625 C47.56898361 64.85092405 46.03393684 68.09942826 42.3125 71.625 C38.19080766 74.37279489 34.7029686 75.6203087 29.7487793 75.66552734 C28.79396164 75.67828705 27.83914398 75.69104675 26.85539246 75.70419312 C25.83448013 75.70641876 24.81356781 75.70864441 23.76171875 75.7109375 C22.70016068 75.7175943 21.6386026 75.7242511 20.5448761 75.73110962 C18.30150074 75.74122192 16.05809539 75.74592708 13.81469727 75.74560547 C10.39743971 75.74997133 6.98148172 75.78628734 3.56445312 75.82421875 C1.38021273 75.83008878 -0.80403377 75.83405692 -2.98828125 75.8359375 C-4.00312088 75.85030853 -5.01796051 75.86467957 -6.06355286 75.87948608 C-13.18799057 75.83402338 -18.82751592 74.74899732 -24.15234375 69.59375 C-24.69568359 68.74296875 -24.69568359 68.74296875 -25.25 67.875 C-25.82041016 67.02421875 -25.82041016 67.02421875 -26.40234375 66.15625 C-28.09851233 62.83670978 -28.43911886 59.66842864 -28.45776367 55.97705078 C-28.46414352 55.11580597 -28.47052338 54.25456116 -28.47709656 53.36721802 C-28.47820938 52.4442392 -28.4793222 51.52126038 -28.48046875 50.5703125 C-28.48379715 49.61357635 -28.48712555 48.65684021 -28.49055481 47.67111206 C-28.49561324 45.64874756 -28.49796347 43.62637473 -28.49780273 41.60400391 C-28.49998697 38.51841394 -28.51814804 35.43318288 -28.53710938 32.34765625 C-28.54004401 30.38020955 -28.54202834 28.41276116 -28.54296875 26.4453125 C-28.55015427 25.52638214 -28.55733978 24.60745178 -28.56474304 23.66067505 C-28.54015206 16.72650132 -27.50451387 11.10426812 -23.3125 5.375 C-16.03321842 0.33604024 -8.59830778 -0.31132479 0 0 Z " fill="#FEBF0A" transform="translate(258.3125,340.625)"/>
<path d="M0 0 C1.12067871 0.02360596 2.24135742 0.04721191 3.39599609 0.0715332 C5.69969378 0.12534576 8.00314287 0.19115712 10.30615234 0.26904297 C13.53452913 0.37020654 16.7585558 0.4133128 19.98828125 0.44140625 C21.92973834 0.47924646 23.87115059 0.51948857 25.8125 0.5625 C26.69333252 0.56781738 27.57416504 0.57313477 28.48168945 0.57861328 C34.69182048 0.79828159 38.82688434 2.48933991 43.6875 6.375 C46.93756776 9.93959045 47.81712534 13.06082386 47.78515625 17.82421875 C47.78032227 19.09555664 47.78032227 19.09555664 47.77539062 20.39257812 C47.76282227 21.71418945 47.76282227 21.71418945 47.75 23.0625 C47.74548828 23.95517578 47.74097656 24.84785156 47.73632812 25.76757812 C47.72454983 27.97011987 47.70810164 30.17252599 47.6875 32.375 C48.3475 32.705 49.0075 33.035 49.6875 33.375 C49.6875 34.035 49.6875 34.695 49.6875 35.375 C49.0275 35.375 48.3675 35.375 47.6875 35.375 C48.6775 37.355 48.6775 37.355 49.6875 39.375 C49.3575 39.705 49.0275 40.035 48.6875 40.375 C48.31989269 42.70317964 47.98508419 45.0368385 47.6875 47.375 C48.3475 47.375 49.0075 47.375 49.6875 47.375 C49.6875 48.035 49.6875 48.695 49.6875 49.375 C49.0275 49.375 48.3675 49.375 47.6875 49.375 C47.73970703 50.78652344 47.73970703 50.78652344 47.79296875 52.2265625 C47.82003906 53.47179687 47.84710938 54.71703125 47.875 56 C47.92720703 57.84464844 47.92720703 57.84464844 47.98046875 59.7265625 C47.56898361 64.85092405 46.03393684 68.09942826 42.3125 71.625 C38.19080766 74.37279489 34.7029686 75.6203087 29.7487793 75.66552734 C28.79396164 75.67828705 27.83914398 75.69104675 26.85539246 75.70419312 C25.83448013 75.70641876 24.81356781 75.70864441 23.76171875 75.7109375 C22.70016068 75.7175943 21.6386026 75.7242511 20.5448761 75.73110962 C18.30150074 75.74122192 16.05809539 75.74592708 13.81469727 75.74560547 C10.39743971 75.74997133 6.98148172 75.78628734 3.56445312 75.82421875 C1.38021273 75.83008878 -0.80403377 75.83405692 -2.98828125 75.8359375 C-4.00312088 75.85030853 -5.01796051 75.86467957 -6.06355286 75.87948608 C-13.18799057 75.83402338 -18.82751592 74.74899732 -24.15234375 69.59375 C-24.69568359 68.74296875 -24.69568359 68.74296875 -25.25 67.875 C-25.82041016 67.02421875 -25.82041016 67.02421875 -26.40234375 66.15625 C-28.09851233 62.83670978 -28.43911886 59.66842864 -28.45776367 55.97705078 C-28.46414352 55.11580597 -28.47052338 54.25456116 -28.47709656 53.36721802 C-28.47820938 52.4442392 -28.4793222 51.52126038 -28.48046875 50.5703125 C-28.48379715 49.61357635 -28.48712555 48.65684021 -28.49055481 47.67111206 C-28.49561324 45.64874756 -28.49796347 43.62637473 -28.49780273 41.60400391 C-28.49998697 38.51841394 -28.51814804 35.43318288 -28.53710938 32.34765625 C-28.54004401 30.38020955 -28.54202834 28.41276116 -28.54296875 26.4453125 C-28.55015427 25.52638214 -28.55733978 24.60745178 -28.56474304 23.66067505 C-28.54015206 16.72650132 -27.50451387 11.10426812 -23.3125 5.375 C-16.03321842 0.33604024 -8.59830778 -0.31132479 0 0 Z " fill="#FEBF0A" transform="translate(148.3125,340.625)"/>
<path d="M0 0 C1.12067871 0.02360596 2.24135742 0.04721191 3.39599609 0.0715332 C5.69969378 0.12534576 8.00314287 0.19115712 10.30615234 0.26904297 C13.53452913 0.37020654 16.7585558 0.4133128 19.98828125 0.44140625 C21.92973834 0.47924646 23.87115059 0.51948857 25.8125 0.5625 C26.69333252 0.56781738 27.57416504 0.57313477 28.48168945 0.57861328 C34.69182048 0.79828159 38.82688434 2.48933991 43.6875 6.375 C46.93756776 9.93959045 47.81712534 13.06082386 47.78515625 17.82421875 C47.78032227 19.09555664 47.78032227 19.09555664 47.77539062 20.39257812 C47.76282227 21.71418945 47.76282227 21.71418945 47.75 23.0625 C47.74548828 23.95517578 47.74097656 24.84785156 47.73632812 25.76757812 C47.72454983 27.97011987 47.70810164 30.17252599 47.6875 32.375 C48.3475 32.705 49.0075 33.035 49.6875 33.375 C49.6875 34.035 49.6875 34.695 49.6875 35.375 C49.0275 35.375 48.3675 35.375 47.6875 35.375 C48.6775 37.355 48.6775 37.355 49.6875 39.375 C49.3575 39.705 49.0275 40.035 48.6875 40.375 C48.31989269 42.70317964 47.98508419 45.0368385 47.6875 47.375 C48.3475 47.375 49.0075 47.375 49.6875 47.375 C49.6875 48.035 49.6875 48.695 49.6875 49.375 C49.0275 49.375 48.3675 49.375 47.6875 49.375 C47.73970703 50.78652344 47.73970703 50.78652344 47.79296875 52.2265625 C47.82003906 53.47179687 47.84710938 54.71703125 47.875 56 C47.92720703 57.84464844 47.92720703 57.84464844 47.98046875 59.7265625 C47.56898361 64.85092405 46.03393684 68.09942826 42.3125 71.625 C38.19080766 74.37279489 34.7029686 75.6203087 29.7487793 75.66552734 C28.79396164 75.67828705 27.83914398 75.69104675 26.85539246 75.70419312 C25.83448013 75.70641876 24.81356781 75.70864441 23.76171875 75.7109375 C22.70016068 75.7175943 21.6386026 75.7242511 20.5448761 75.73110962 C18.30150074 75.74122192 16.05809539 75.74592708 13.81469727 75.74560547 C10.39743971 75.74997133 6.98148172 75.78628734 3.56445312 75.82421875 C1.38021273 75.83008878 -0.80403377 75.83405692 -2.98828125 75.8359375 C-4.00312088 75.85030853 -5.01796051 75.86467957 -6.06355286 75.87948608 C-13.18799057 75.83402338 -18.82751592 74.74899732 -24.15234375 69.59375 C-24.69568359 68.74296875 -24.69568359 68.74296875 -25.25 67.875 C-25.82041016 67.02421875 -25.82041016 67.02421875 -26.40234375 66.15625 C-28.09851233 62.83670978 -28.43911886 59.66842864 -28.45776367 55.97705078 C-28.46414352 55.11580597 -28.47052338 54.25456116 -28.47709656 53.36721802 C-28.47820938 52.4442392 -28.4793222 51.52126038 -28.48046875 50.5703125 C-28.48379715 49.61357635 -28.48712555 48.65684021 -28.49055481 47.67111206 C-28.49561324 45.64874756 -28.49796347 43.62637473 -28.49780273 41.60400391 C-28.49998697 38.51841394 -28.51814804 35.43318288 -28.53710938 32.34765625 C-28.54004401 30.38020955 -28.54202834 28.41276116 -28.54296875 26.4453125 C-28.55015427 25.52638214 -28.55733978 24.60745178 -28.56474304 23.66067505 C-28.54015206 16.72650132 -27.50451387 11.10426812 -23.3125 5.375 C-16.03321842 0.33604024 -8.59830778 -0.31132479 0 0 Z " fill="#FEBF0A" transform="translate(38.3125,245.625)"/>
<path d="M0 0 C1.12067871 0.02360596 2.24135742 0.04721191 3.39599609 0.0715332 C5.69969378 0.12534576 8.00314287 0.19115712 10.30615234 0.26904297 C13.53452913 0.37020654 16.7585558 0.4133128 19.98828125 0.44140625 C21.92973834 0.47924646 23.87115059 0.51948857 25.8125 0.5625 C26.69333252 0.56781738 27.57416504 0.57313477 28.48168945 0.57861328 C34.69182048 0.79828159 38.82688434 2.48933991 43.6875 6.375 C46.93756776 9.93959045 47.81712534 13.06082386 47.78515625 17.82421875 C47.78032227 19.09555664 47.78032227 19.09555664 47.77539062 20.39257812 C47.76282227 21.71418945 47.76282227 21.71418945 47.75 23.0625 C47.74548828 23.95517578 47.74097656 24.84785156 47.73632812 25.76757812 C47.72454983 27.97011987 47.70810164 30.17252599 47.6875 32.375 C48.3475 32.705 49.0075 33.035 49.6875 33.375 C49.6875 34.035 49.6875 34.695 49.6875 35.375 C49.0275 35.375 48.3675 35.375 47.6875 35.375 C48.6775 37.355 48.6775 37.355 49.6875 39.375 C49.3575 39.705 49.0275 40.035 48.6875 40.375 C48.31989269 42.70317964 47.98508419 45.0368385 47.6875 47.375 C48.3475 47.375 49.0075 47.375 49.6875 47.375 C49.6875 48.035 49.6875 48.695 49.6875 49.375 C49.0275 49.375 48.3675 49.375 47.6875 49.375 C47.73970703 50.78652344 47.73970703 50.78652344 47.79296875 52.2265625 C47.82003906 53.47179687 47.84710938 54.71703125 47.875 56 C47.92720703 57.84464844 47.92720703 57.84464844 47.98046875 59.7265625 C47.56898361 64.85092405 46.03393684 68.09942826 42.3125 71.625 C38.19080766 74.37279489 34.7029686 75.6203087 29.7487793 75.66552734 C28.79396164 75.67828705 27.83914398 75.69104675 26.85539246 75.70419312 C25.83448013 75.70641876 24.81356781 75.70864441 23.76171875 75.7109375 C22.70016068 75.7175943 21.6386026 75.7242511 20.5448761 75.73110962 C18.30150074 75.74122192 16.05809539 75.74592708 13.81469727 75.74560547 C10.39743971 75.74997133 6.98148172 75.78628734 3.56445312 75.82421875 C1.38021273 75.83008878 -0.80403377 75.83405692 -2.98828125 75.8359375 C-4.00312088 75.85030853 -5.01796051 75.86467957 -6.06355286 75.87948608 C-13.18799057 75.83402338 -18.82751592 74.74899732 -24.15234375 69.59375 C-24.69568359 68.74296875 -24.69568359 68.74296875 -25.25 67.875 C-25.82041016 67.02421875 -25.82041016 67.02421875 -26.40234375 66.15625 C-28.09851233 62.83670978 -28.43911886 59.66842864 -28.45776367 55.97705078 C-28.46414352 55.11580597 -28.47052338 54.25456116 -28.47709656 53.36721802 C-28.47820938 52.4442392 -28.4793222 51.52126038 -28.48046875 50.5703125 C-28.48379715 49.61357635 -28.48712555 48.65684021 -28.49055481 47.67111206 C-28.49561324 45.64874756 -28.49796347 43.62637473 -28.49780273 41.60400391 C-28.49998697 38.51841394 -28.51814804 35.43318288 -28.53710938 32.34765625 C-28.54004401 30.38020955 -28.54202834 28.41276116 -28.54296875 26.4453125 C-28.55015427 25.52638214 -28.55733978 24.60745178 -28.56474304 23.66067505 C-28.54015206 16.72650132 -27.50451387 11.10426812 -23.3125 5.375 C-16.03321842 0.33604024 -8.59830778 -0.31132479 0 0 Z " fill="#FEBF0A" transform="translate(258.3125,243.625)"/>
<path d="M0 0 C1.12067871 0.02360596 2.24135742 0.04721191 3.39599609 0.0715332 C5.69969378 0.12534576 8.00314287 0.19115712 10.30615234 0.26904297 C13.53452913 0.37020654 16.7585558 0.4133128 19.98828125 0.44140625 C21.92973834 0.47924646 23.87115059 0.51948857 25.8125 0.5625 C26.69333252 0.56781738 27.57416504 0.57313477 28.48168945 0.57861328 C34.69182048 0.79828159 38.82688434 2.48933991 43.6875 6.375 C46.93756776 9.93959045 47.81712534 13.06082386 47.78515625 17.82421875 C47.78032227 19.09555664 47.78032227 19.09555664 47.77539062 20.39257812 C47.76282227 21.71418945 47.76282227 21.71418945 47.75 23.0625 C47.74548828 23.95517578 47.74097656 24.84785156 47.73632812 25.76757812 C47.72454983 27.97011987 47.70810164 30.17252599 47.6875 32.375 C48.3475 32.705 49.0075 33.035 49.6875 33.375 C49.6875 34.035 49.6875 34.695 49.6875 35.375 C49.0275 35.375 48.3675 35.375 47.6875 35.375 C48.6775 37.355 48.6775 37.355 49.6875 39.375 C49.3575 39.705 49.0275 40.035 48.6875 40.375 C48.31989269 42.70317964 47.98508419 45.0368385 47.6875 47.375 C48.3475 47.375 49.0075 47.375 49.6875 47.375 C49.6875 48.035 49.6875 48.695 49.6875 49.375 C49.0275 49.375 48.3675 49.375 47.6875 49.375 C47.73970703 50.78652344 47.73970703 50.78652344 47.79296875 52.2265625 C47.82003906 53.47179687 47.84710938 54.71703125 47.875 56 C47.92720703 57.84464844 47.92720703 57.84464844 47.98046875 59.7265625 C47.56898361 64.85092405 46.03393684 68.09942826 42.3125 71.625 C38.19080766 74.37279489 34.7029686 75.6203087 29.7487793 75.66552734 C28.79396164 75.67828705 27.83914398 75.69104675 26.85539246 75.70419312 C25.83448013 75.70641876 24.81356781 75.70864441 23.76171875 75.7109375 C22.70016068 75.7175943 21.6386026 75.7242511 20.5448761 75.73110962 C18.30150074 75.74122192 16.05809539 75.74592708 13.81469727 75.74560547 C10.39743971 75.74997133 6.98148172 75.78628734 3.56445312 75.82421875 C1.38021273 75.83008878 -0.80403377 75.83405692 -2.98828125 75.8359375 C-4.00312088 75.85030853 -5.01796051 75.86467957 -6.06355286 75.87948608 C-13.18799057 75.83402338 -18.82751592 74.74899732 -24.15234375 69.59375 C-24.69568359 68.74296875 -24.69568359 68.74296875 -25.25 67.875 C-25.82041016 67.02421875 -25.82041016 67.02421875 -26.40234375 66.15625 C-28.09851233 62.83670978 -28.43911886 59.66842864 -28.45776367 55.97705078 C-28.46414352 55.11580597 -28.47052338 54.25456116 -28.47709656 53.36721802 C-28.47820938 52.4442392 -28.4793222 51.52126038 -28.48046875 50.5703125 C-28.48379715 49.61357635 -28.48712555 48.65684021 -28.49055481 47.67111206 C-28.49561324 45.64874756 -28.49796347 43.62637473 -28.49780273 41.60400391 C-28.49998697 38.51841394 -28.51814804 35.43318288 -28.53710938 32.34765625 C-28.54004401 30.38020955 -28.54202834 28.41276116 -28.54296875 26.4453125 C-28.55015427 25.52638214 -28.55733978 24.60745178 -28.56474304 23.66067505 C-28.54015206 16.72650132 -27.50451387 11.10426812 -23.3125 5.375 C-16.03321842 0.33604024 -8.59830778 -0.31132479 0 0 Z " fill="#FEBF0A" transform="translate(148.3125,243.625)"/>
<path d="M0 0 C1.12067871 0.02360596 2.24135742 0.04721191 3.39599609 0.0715332 C5.69969378 0.12534576 8.00314287 0.19115712 10.30615234 0.26904297 C13.53452913 0.37020654 16.7585558 0.4133128 19.98828125 0.44140625 C21.92973834 0.47924646 23.87115059 0.51948857 25.8125 0.5625 C26.69333252 0.56781738 27.57416504 0.57313477 28.48168945 0.57861328 C34.69182048 0.79828159 38.82688434 2.48933991 43.6875 6.375 C46.93756776 9.93959045 47.81712534 13.06082386 47.78515625 17.82421875 C47.78032227 19.09555664 47.78032227 19.09555664 47.77539062 20.39257812 C47.76282227 21.71418945 47.76282227 21.71418945 47.75 23.0625 C47.74548828 23.95517578 47.74097656 24.84785156 47.73632812 25.76757812 C47.72454983 27.97011987 47.70810164 30.17252599 47.6875 32.375 C48.3475 32.705 49.0075 33.035 49.6875 33.375 C49.6875 34.035 49.6875 34.695 49.6875 35.375 C49.0275 35.375 48.3675 35.375 47.6875 35.375 C48.6775 37.355 48.6775 37.355 49.6875 39.375 C49.3575 39.705 49.0275 40.035 48.6875 40.375 C48.31989269 42.70317964 47.98508419 45.0368385 47.6875 47.375 C48.3475 47.375 49.0075 47.375 49.6875 47.375 C49.6875 48.035 49.6875 48.695 49.6875 49.375 C49.0275 49.375 48.3675 49.375 47.6875 49.375 C47.73970703 50.78652344 47.73970703 50.78652344 47.79296875 52.2265625 C47.82003906 53.47179687 47.84710938 54.71703125 47.875 56 C47.92720703 57.84464844 47.92720703 57.84464844 47.98046875 59.7265625 C47.56898361 64.85092405 46.03393684 68.09942826 42.3125 71.625 C38.19080766 74.37279489 34.7029686 75.6203087 29.7487793 75.66552734 C28.79396164 75.67828705 27.83914398 75.69104675 26.85539246 75.70419312 C25.83448013 75.70641876 24.81356781 75.70864441 23.76171875 75.7109375 C22.70016068 75.7175943 21.6386026 75.7242511 20.5448761 75.73110962 C18.30150074 75.74122192 16.05809539 75.74592708 13.81469727 75.74560547 C10.39743971 75.74997133 6.98148172 75.78628734 3.56445312 75.82421875 C1.38021273 75.83008878 -0.80403377 75.83405692 -2.98828125 75.8359375 C-4.00312088 75.85030853 -5.01796051 75.86467957 -6.06355286 75.87948608 C-13.18799057 75.83402338 -18.82751592 74.74899732 -24.15234375 69.59375 C-24.69568359 68.74296875 -24.69568359 68.74296875 -25.25 67.875 C-25.82041016 67.02421875 -25.82041016 67.02421875 -26.40234375 66.15625 C-28.09851233 62.83670978 -28.43911886 59.66842864 -28.45776367 55.97705078 C-28.46414352 55.11580597 -28.47052338 54.25456116 -28.47709656 53.36721802 C-28.47820938 52.4442392 -28.4793222 51.52126038 -28.48046875 50.5703125 C-28.48379715 49.61357635 -28.48712555 48.65684021 -28.49055481 47.67111206 C-28.49561324 45.64874756 -28.49796347 43.62637473 -28.49780273 41.60400391 C-28.49998697 38.51841394 -28.51814804 35.43318288 -28.53710938 32.34765625 C-28.54004401 30.38020955 -28.54202834 28.41276116 -28.54296875 26.4453125 C-28.55015427 25.52638214 -28.55733978 24.60745178 -28.56474304 23.66067505 C-28.54015206 16.72650132 -27.50451387 11.10426812 -23.3125 5.375 C-16.03321842 0.33604024 -8.59830778 -0.31132479 0 0 Z " fill="#FEBF0A" transform="translate(38.3125,147.625)"/>
<path d="M0 0 C1.12067871 0.02360596 2.24135742 0.04721191 3.39599609 0.0715332 C5.69969378 0.12534576 8.00314287 0.19115712 10.30615234 0.26904297 C13.53452913 0.37020654 16.7585558 0.4133128 19.98828125 0.44140625 C21.92973834 0.47924646 23.87115059 0.51948857 25.8125 0.5625 C26.69333252 0.56781738 27.57416504 0.57313477 28.48168945 0.57861328 C34.69182048 0.79828159 38.82688434 2.48933991 43.6875 6.375 C46.93756776 9.93959045 47.81712534 13.06082386 47.78515625 17.82421875 C47.78032227 19.09555664 47.78032227 19.09555664 47.77539062 20.39257812 C47.76282227 21.71418945 47.76282227 21.71418945 47.75 23.0625 C47.74548828 23.95517578 47.74097656 24.84785156 47.73632812 25.76757812 C47.72454983 27.97011987 47.70810164 30.17252599 47.6875 32.375 C48.3475 32.705 49.0075 33.035 49.6875 33.375 C49.6875 34.035 49.6875 34.695 49.6875 35.375 C49.0275 35.375 48.3675 35.375 47.6875 35.375 C48.6775 37.355 48.6775 37.355 49.6875 39.375 C49.3575 39.705 49.0275 40.035 48.6875 40.375 C48.31989269 42.70317964 47.98508419 45.0368385 47.6875 47.375 C48.3475 47.375 49.0075 47.375 49.6875 47.375 C49.6875 48.035 49.6875 48.695 49.6875 49.375 C49.0275 49.375 48.3675 49.375 47.6875 49.375 C47.73970703 50.78652344 47.73970703 50.78652344 47.79296875 52.2265625 C47.82003906 53.47179687 47.84710938 54.71703125 47.875 56 C47.92720703 57.84464844 47.92720703 57.84464844 47.98046875 59.7265625 C47.56898361 64.85092405 46.03393684 68.09942826 42.3125 71.625 C38.19080766 74.37279489 34.7029686 75.6203087 29.7487793 75.66552734 C28.79396164 75.67828705 27.83914398 75.69104675 26.85539246 75.70419312 C25.83448013 75.70641876 24.81356781 75.70864441 23.76171875 75.7109375 C22.70016068 75.7175943 21.6386026 75.7242511 20.5448761 75.73110962 C18.30150074 75.74122192 16.05809539 75.74592708 13.81469727 75.74560547 C10.39743971 75.74997133 6.98148172 75.78628734 3.56445312 75.82421875 C1.38021273 75.83008878 -0.80403377 75.83405692 -2.98828125 75.8359375 C-4.00312088 75.85030853 -5.01796051 75.86467957 -6.06355286 75.87948608 C-13.18799057 75.83402338 -18.82751592 74.74899732 -24.15234375 69.59375 C-24.69568359 68.74296875 -24.69568359 68.74296875 -25.25 67.875 C-25.82041016 67.02421875 -25.82041016 67.02421875 -26.40234375 66.15625 C-28.09851233 62.83670978 -28.43911886 59.66842864 -28.45776367 55.97705078 C-28.46414352 55.11580597 -28.47052338 54.25456116 -28.47709656 53.36721802 C-28.47820938 52.4442392 -28.4793222 51.52126038 -28.48046875 50.5703125 C-28.48379715 49.61357635 -28.48712555 48.65684021 -28.49055481 47.67111206 C-28.49561324 45.64874756 -28.49796347 43.62637473 -28.49780273 41.60400391 C-28.49998697 38.51841394 -28.51814804 35.43318288 -28.53710938 32.34765625 C-28.54004401 30.38020955 -28.54202834 28.41276116 -28.54296875 26.4453125 C-28.55015427 25.52638214 -28.55733978 24.60745178 -28.56474304 23.66067505 C-28.54015206 16.72650132 -27.50451387 11.10426812 -23.3125 5.375 C-16.03321842 0.33604024 -8.59830778 -0.31132479 0 0 Z " fill="#FEBF0A" transform="translate(368.3125,145.625)"/>
<path d="M0 0 C1.12067871 0.02360596 2.24135742 0.04721191 3.39599609 0.0715332 C5.69969378 0.12534576 8.00314287 0.19115712 10.30615234 0.26904297 C13.53452913 0.37020654 16.7585558 0.4133128 19.98828125 0.44140625 C21.92973834 0.47924646 23.87115059 0.51948857 25.8125 0.5625 C26.69333252 0.56781738 27.57416504 0.57313477 28.48168945 0.57861328 C34.69182048 0.79828159 38.82688434 2.48933991 43.6875 6.375 C46.93756776 9.93959045 47.81712534 13.06082386 47.78515625 17.82421875 C47.78032227 19.09555664 47.78032227 19.09555664 47.77539062 20.39257812 C47.76282227 21.71418945 47.76282227 21.71418945 47.75 23.0625 C47.74548828 23.95517578 47.74097656 24.84785156 47.73632812 25.76757812 C47.72454983 27.97011987 47.70810164 30.17252599 47.6875 32.375 C48.3475 32.705 49.0075 33.035 49.6875 33.375 C49.6875 34.035 49.6875 34.695 49.6875 35.375 C49.0275 35.375 48.3675 35.375 47.6875 35.375 C48.6775 37.355 48.6775 37.355 49.6875 39.375 C49.3575 39.705 49.0275 40.035 48.6875 40.375 C48.31989269 42.70317964 47.98508419 45.0368385 47.6875 47.375 C48.3475 47.375 49.0075 47.375 49.6875 47.375 C49.6875 48.035 49.6875 48.695 49.6875 49.375 C49.0275 49.375 48.3675 49.375 47.6875 49.375 C47.73970703 50.78652344 47.73970703 50.78652344 47.79296875 52.2265625 C47.82003906 53.47179687 47.84710938 54.71703125 47.875 56 C47.92720703 57.84464844 47.92720703 57.84464844 47.98046875 59.7265625 C47.56898361 64.85092405 46.03393684 68.09942826 42.3125 71.625 C38.19080766 74.37279489 34.7029686 75.6203087 29.7487793 75.66552734 C28.79396164 75.67828705 27.83914398 75.69104675 26.85539246 75.70419312 C25.83448013 75.70641876 24.81356781 75.70864441 23.76171875 75.7109375 C22.70016068 75.7175943 21.6386026 75.7242511 20.5448761 75.73110962 C18.30150074 75.74122192 16.05809539 75.74592708 13.81469727 75.74560547 C10.39743971 75.74997133 6.98148172 75.78628734 3.56445312 75.82421875 C1.38021273 75.83008878 -0.80403377 75.83405692 -2.98828125 75.8359375 C-4.00312088 75.85030853 -5.01796051 75.86467957 -6.06355286 75.87948608 C-13.18799057 75.83402338 -18.82751592 74.74899732 -24.15234375 69.59375 C-24.69568359 68.74296875 -24.69568359 68.74296875 -25.25 67.875 C-25.82041016 67.02421875 -25.82041016 67.02421875 -26.40234375 66.15625 C-28.09851233 62.83670978 -28.43911886 59.66842864 -28.45776367 55.97705078 C-28.46414352 55.11580597 -28.47052338 54.25456116 -28.47709656 53.36721802 C-28.47820938 52.4442392 -28.4793222 51.52126038 -28.48046875 50.5703125 C-28.48379715 49.61357635 -28.48712555 48.65684021 -28.49055481 47.67111206 C-28.49561324 45.64874756 -28.49796347 43.62637473 -28.49780273 41.60400391 C-28.49998697 38.51841394 -28.51814804 35.43318288 -28.53710938 32.34765625 C-28.54004401 30.38020955 -28.54202834 28.41276116 -28.54296875 26.4453125 C-28.55015427 25.52638214 -28.55733978 24.60745178 -28.56474304 23.66067505 C-28.54015206 16.72650132 -27.50451387 11.10426812 -23.3125 5.375 C-16.03321842 0.33604024 -8.59830778 -0.31132479 0 0 Z " fill="#FEBF0A" transform="translate(257.3125,145.625)"/>
<path d="M0 0 C1.12067871 0.02360596 2.24135742 0.04721191 3.39599609 0.0715332 C5.69969378 0.12534576 8.00314287 0.19115712 10.30615234 0.26904297 C13.53452913 0.37020654 16.7585558 0.4133128 19.98828125 0.44140625 C21.92973834 0.47924646 23.87115059 0.51948857 25.8125 0.5625 C26.69333252 0.56781738 27.57416504 0.57313477 28.48168945 0.57861328 C34.69182048 0.79828159 38.82688434 2.48933991 43.6875 6.375 C46.93756776 9.93959045 47.81712534 13.06082386 47.78515625 17.82421875 C47.78032227 19.09555664 47.78032227 19.09555664 47.77539062 20.39257812 C47.76282227 21.71418945 47.76282227 21.71418945 47.75 23.0625 C47.74548828 23.95517578 47.74097656 24.84785156 47.73632812 25.76757812 C47.72454983 27.97011987 47.70810164 30.17252599 47.6875 32.375 C48.3475 32.705 49.0075 33.035 49.6875 33.375 C49.6875 34.035 49.6875 34.695 49.6875 35.375 C49.0275 35.375 48.3675 35.375 47.6875 35.375 C48.6775 37.355 48.6775 37.355 49.6875 39.375 C49.3575 39.705 49.0275 40.035 48.6875 40.375 C48.31989269 42.70317964 47.98508419 45.0368385 47.6875 47.375 C48.3475 47.375 49.0075 47.375 49.6875 47.375 C49.6875 48.035 49.6875 48.695 49.6875 49.375 C49.0275 49.375 48.3675 49.375 47.6875 49.375 C47.73970703 50.78652344 47.73970703 50.78652344 47.79296875 52.2265625 C47.82003906 53.47179687 47.84710938 54.71703125 47.875 56 C47.92720703 57.84464844 47.92720703 57.84464844 47.98046875 59.7265625 C47.56898361 64.85092405 46.03393684 68.09942826 42.3125 71.625 C38.19080766 74.37279489 34.7029686 75.6203087 29.7487793 75.66552734 C28.79396164 75.67828705 27.83914398 75.69104675 26.85539246 75.70419312 C25.83448013 75.70641876 24.81356781 75.70864441 23.76171875 75.7109375 C22.70016068 75.7175943 21.6386026 75.7242511 20.5448761 75.73110962 C18.30150074 75.74122192 16.05809539 75.74592708 13.81469727 75.74560547 C10.39743971 75.74997133 6.98148172 75.78628734 3.56445312 75.82421875 C1.38021273 75.83008878 -0.80403377 75.83405692 -2.98828125 75.8359375 C-4.00312088 75.85030853 -5.01796051 75.86467957 -6.06355286 75.87948608 C-13.18799057 75.83402338 -18.82751592 74.74899732 -24.15234375 69.59375 C-24.69568359 68.74296875 -24.69568359 68.74296875 -25.25 67.875 C-25.82041016 67.02421875 -25.82041016 67.02421875 -26.40234375 66.15625 C-28.09851233 62.83670978 -28.43911886 59.66842864 -28.45776367 55.97705078 C-28.46414352 55.11580597 -28.47052338 54.25456116 -28.47709656 53.36721802 C-28.47820938 52.4442392 -28.4793222 51.52126038 -28.48046875 50.5703125 C-28.48379715 49.61357635 -28.48712555 48.65684021 -28.49055481 47.67111206 C-28.49561324 45.64874756 -28.49796347 43.62637473 -28.49780273 41.60400391 C-28.49998697 38.51841394 -28.51814804 35.43318288 -28.53710938 32.34765625 C-28.54004401 30.38020955 -28.54202834 28.41276116 -28.54296875 26.4453125 C-28.55015427 25.52638214 -28.55733978 24.60745178 -28.56474304 23.66067505 C-28.54015206 16.72650132 -27.50451387 11.10426812 -23.3125 5.375 C-16.03321842 0.33604024 -8.59830778 -0.31132479 0 0 Z " fill="#FEBF0A" transform="translate(148.3125,145.625)"/>
<path d="M0 0 C0.33 0 0.66 0 1 0 C1.02505615 1.00788574 1.0501123 2.01577148 1.07592773 3.05419922 C1.17097758 6.83766742 1.27094904 10.62099306 1.37231445 14.40429688 C1.41529822 16.03349443 1.45699424 17.66272654 1.49731445 19.29199219 C1.62745456 24.52972974 1.7930592 29.76473811 2 35 C2.03883301 36.08700195 2.07766602 37.17400391 2.11767578 38.29394531 C2.17294434 39.18952148 2.22821289 40.08509766 2.28515625 41.0078125 C2.32648682 41.74918457 2.36781738 42.49055664 2.41040039 43.25439453 C2.85691089 45.2045886 2.85691089 45.2045886 4.96655273 46.15576172 C5.63759033 46.43436035 6.30862793 46.71295898 7 47 C7.4125 47.495 7.825 47.99 8.25 48.5 C11.09087461 50.93503538 14.37626381 51.22772835 18 52 C18 52.33 18 52.66 18 53 C32.85 53.33 47.7 53.66 63 54 C63 54.33 63 54.66 63 55 C56.16826164 55.10179743 49.33672041 55.17163191 42.50439453 55.21972656 C40.18238007 55.23978577 37.86041577 55.26703991 35.53857422 55.30175781 C32.19225655 55.35052541 28.84660941 55.37302643 25.5 55.390625 C24.4694751 55.41127014 23.4389502 55.43191528 22.37719727 55.45318604 C15.18023338 55.45540385 9.54322789 54.43038624 4.16015625 49.21875 C3.79792969 48.6515625 3.43570312 48.084375 3.0625 47.5 C2.68222656 46.9328125 2.30195313 46.365625 1.91015625 45.78125 C0.25820555 42.54824777 -0.12491015 39.47160611 -0.11352539 35.87402344 C-0.11344986 35.07349548 -0.11337433 34.27296753 -0.11329651 33.44818115 C-0.10813522 32.59387512 -0.10297394 31.73956909 -0.09765625 30.859375 C-0.0962413 29.97719299 -0.09482635 29.09501099 -0.09336853 28.18609619 C-0.08778001 25.37402935 -0.07522961 22.5620427 -0.0625 19.75 C-0.05748352 17.84114698 -0.05292087 15.93229272 -0.04882812 14.0234375 C-0.03781434 9.34892753 -0.02055758 4.67447735 0 0 Z " fill="#FEC620" transform="translate(10,168)"/>
<path d="M0 0 C0.33 0 0.66 0 1 0 C1.02505615 1.04341553 1.0501123 2.08683105 1.07592773 3.16186523 C1.17081372 7.07017196 1.27082881 10.97833415 1.37231445 14.88647461 C1.41535886 16.57101028 1.45705223 18.25558108 1.49731445 19.94018555 C1.55576429 22.37559554 1.61923423 24.81083358 1.68359375 27.24609375 C1.70030624 27.98709824 1.71701874 28.72810272 1.73423767 29.49156189 C1.7943955 31.6633947 1.88866927 33.83021257 2 36 C2.03368683 36.8172757 2.06737366 37.63455139 2.1020813 38.47659302 C2.15742035 39.28361664 2.2127594 40.09064026 2.26977539 40.92211914 C2.31332657 41.65523819 2.35687775 42.38835724 2.40174866 43.14369202 C2.83685472 45.19720127 2.83685472 45.19720127 4.96751404 46.16111755 C5.63823441 46.43794876 6.30895477 46.71477997 7 47 C7.4125 47.495 7.825 47.99 8.25 48.5 C11.09087461 50.93503538 14.37626381 51.22772835 18 52 C18 52.33 18 52.66 18 53 C39.78 53.495 39.78 53.495 62 54 C62 54.33 62 54.66 62 55 C55.31067983 55.10181508 48.62156113 55.17163915 41.93164062 55.21972656 C39.65812716 55.23978317 37.3846649 55.26703538 35.11132812 55.30175781 C31.83450651 55.35053712 28.55836975 55.37302897 25.28125 55.390625 C23.76827332 55.42159271 23.76827332 55.42159271 22.22473145 55.45318604 C15.09356412 55.45542939 9.49080258 54.37963052 4.16015625 49.21875 C3.79792969 48.6515625 3.43570312 48.084375 3.0625 47.5 C2.68222656 46.9328125 2.30195313 46.365625 1.91015625 45.78125 C0.25820555 42.54824777 -0.12491015 39.47160611 -0.11352539 35.87402344 C-0.11344986 35.07349548 -0.11337433 34.27296753 -0.11329651 33.44818115 C-0.10813522 32.59387512 -0.10297394 31.73956909 -0.09765625 30.859375 C-0.0962413 29.97719299 -0.09482635 29.09501099 -0.09336853 28.18609619 C-0.08778001 25.37402935 -0.07522961 22.5620427 -0.0625 19.75 C-0.05748352 17.84114698 -0.05292087 15.93229272 -0.04882812 14.0234375 C-0.03781434 9.34892753 -0.02055758 4.67447735 0 0 Z " fill="#FEC520" transform="translate(11,363)"/>
<path d="M0 0 C0.33 0 0.66 0 1 0 C1.02505615 1.04341553 1.0501123 2.08683105 1.07592773 3.16186523 C1.17081372 7.07017196 1.27082881 10.97833415 1.37231445 14.88647461 C1.41535886 16.57101028 1.45705223 18.25558108 1.49731445 19.94018555 C1.55576429 22.37559554 1.61923423 24.81083358 1.68359375 27.24609375 C1.70030624 27.98709824 1.71701874 28.72810272 1.73423767 29.49156189 C1.7943955 31.6633947 1.88866927 33.83021257 2 36 C2.03368683 36.8172757 2.06737366 37.63455139 2.1020813 38.47659302 C2.15742035 39.28361664 2.2127594 40.09064026 2.26977539 40.92211914 C2.31332657 41.65523819 2.35687775 42.38835724 2.40174866 43.14369202 C2.83685472 45.19720127 2.83685472 45.19720127 4.96751404 46.16111755 C5.63823441 46.43794876 6.30895477 46.71477997 7 47 C7.4125 47.495 7.825 47.99 8.25 48.5 C11.09087461 50.93503538 14.37626381 51.22772835 18 52 C18 52.33 18 52.66 18 53 C39.78 53.495 39.78 53.495 62 54 C62 54.33 62 54.66 62 55 C55.31067983 55.10181508 48.62156113 55.17163915 41.93164062 55.21972656 C39.65812716 55.23978317 37.3846649 55.26703538 35.11132812 55.30175781 C31.83450651 55.35053712 28.55836975 55.37302897 25.28125 55.390625 C23.76827332 55.42159271 23.76827332 55.42159271 22.22473145 55.45318604 C15.09356412 55.45542939 9.49080258 54.37963052 4.16015625 49.21875 C3.79792969 48.6515625 3.43570313 48.084375 3.0625 47.5 C2.68222656 46.9328125 2.30195313 46.365625 1.91015625 45.78125 C0.25820555 42.54824777 -0.12491015 39.47160611 -0.11352539 35.87402344 C-0.11344986 35.07349548 -0.11337433 34.27296753 -0.11329651 33.44818115 C-0.10813522 32.59387512 -0.10297394 31.73956909 -0.09765625 30.859375 C-0.0962413 29.97719299 -0.09482635 29.09501099 -0.09336853 28.18609619 C-0.08778001 25.37402935 -0.07522961 22.5620427 -0.0625 19.75 C-0.05748352 17.84114698 -0.05292087 15.93229272 -0.04882812 14.0234375 C-0.03781434 9.34892753 -0.02055758 4.67447735 0 0 Z " fill="#FEC520" transform="translate(230,361)"/>
<path d="M0 0 C0.33 0 0.66 0 1 0 C1.02505615 1.04341553 1.0501123 2.08683105 1.07592773 3.16186523 C1.17081372 7.07017196 1.27082881 10.97833415 1.37231445 14.88647461 C1.41535886 16.57101028 1.45705223 18.25558108 1.49731445 19.94018555 C1.55576429 22.37559554 1.61923423 24.81083358 1.68359375 27.24609375 C1.70030624 27.98709824 1.71701874 28.72810272 1.73423767 29.49156189 C1.7943955 31.6633947 1.88866927 33.83021257 2 36 C2.03368683 36.8172757 2.06737366 37.63455139 2.1020813 38.47659302 C2.15742035 39.28361664 2.2127594 40.09064026 2.26977539 40.92211914 C2.31332657 41.65523819 2.35687775 42.38835724 2.40174866 43.14369202 C2.83685472 45.19720127 2.83685472 45.19720127 4.96751404 46.16111755 C5.63823441 46.43794876 6.30895477 46.71477997 7 47 C7.4125 47.495 7.825 47.99 8.25 48.5 C11.09087461 50.93503538 14.37626381 51.22772835 18 52 C18 52.33 18 52.66 18 53 C39.78 53.495 39.78 53.495 62 54 C62 54.33 62 54.66 62 55 C55.31067983 55.10181508 48.62156113 55.17163915 41.93164062 55.21972656 C39.65812716 55.23978317 37.3846649 55.26703538 35.11132812 55.30175781 C31.83450651 55.35053712 28.55836975 55.37302897 25.28125 55.390625 C23.76827332 55.42159271 23.76827332 55.42159271 22.22473145 55.45318604 C15.09356412 55.45542939 9.49080258 54.37963052 4.16015625 49.21875 C3.79792969 48.6515625 3.43570313 48.084375 3.0625 47.5 C2.68222656 46.9328125 2.30195312 46.365625 1.91015625 45.78125 C0.25820555 42.54824777 -0.12491015 39.47160611 -0.11352539 35.87402344 C-0.11344986 35.07349548 -0.11337433 34.27296753 -0.11329651 33.44818115 C-0.10813522 32.59387512 -0.10297394 31.73956909 -0.09765625 30.859375 C-0.0962413 29.97719299 -0.09482635 29.09501099 -0.09336853 28.18609619 C-0.08778001 25.37402935 -0.07522961 22.5620427 -0.0625 19.75 C-0.05748352 17.84114698 -0.05292087 15.93229272 -0.04882812 14.0234375 C-0.03781434 9.34892753 -0.02055758 4.67447735 0 0 Z " fill="#FEC520" transform="translate(120,361)"/>
<path d="M0 0 C0.33 0 0.66 0 1 0 C1.02505615 1.04341553 1.0501123 2.08683105 1.07592773 3.16186523 C1.17081372 7.07017196 1.27082881 10.97833415 1.37231445 14.88647461 C1.41535886 16.57101028 1.45705223 18.25558108 1.49731445 19.94018555 C1.55576429 22.37559554 1.61923423 24.81083358 1.68359375 27.24609375 C1.70030624 27.98709824 1.71701874 28.72810272 1.73423767 29.49156189 C1.7943955 31.6633947 1.88866927 33.83021257 2 36 C2.03368683 36.8172757 2.06737366 37.63455139 2.1020813 38.47659302 C2.15742035 39.28361664 2.2127594 40.09064026 2.26977539 40.92211914 C2.31332657 41.65523819 2.35687775 42.38835724 2.40174866 43.14369202 C2.83685472 45.19720127 2.83685472 45.19720127 4.96751404 46.16111755 C5.63823441 46.43794876 6.30895477 46.71477997 7 47 C7.4125 47.495 7.825 47.99 8.25 48.5 C11.09087461 50.93503538 14.37626381 51.22772835 18 52 C18 52.33 18 52.66 18 53 C39.78 53.495 39.78 53.495 62 54 C62 54.33 62 54.66 62 55 C55.31067983 55.10181508 48.62156113 55.17163915 41.93164062 55.21972656 C39.65812716 55.23978317 37.3846649 55.26703538 35.11132812 55.30175781 C31.83450651 55.35053712 28.55836975 55.37302897 25.28125 55.390625 C23.76827332 55.42159271 23.76827332 55.42159271 22.22473145 55.45318604 C15.09356412 55.45542939 9.49080258 54.37963052 4.16015625 49.21875 C3.79792969 48.6515625 3.43570312 48.084375 3.0625 47.5 C2.68222656 46.9328125 2.30195313 46.365625 1.91015625 45.78125 C0.25820555 42.54824777 -0.12491015 39.47160611 -0.11352539 35.87402344 C-0.11344986 35.07349548 -0.11337433 34.27296753 -0.11329651 33.44818115 C-0.10813522 32.59387512 -0.10297394 31.73956909 -0.09765625 30.859375 C-0.0962413 29.97719299 -0.09482635 29.09501099 -0.09336853 28.18609619 C-0.08778001 25.37402935 -0.07522961 22.5620427 -0.0625 19.75 C-0.05748352 17.84114698 -0.05292087 15.93229272 -0.04882812 14.0234375 C-0.03781434 9.34892753 -0.02055758 4.67447735 0 0 Z " fill="#FEC520" transform="translate(10,266)"/>
<path d="M0 0 C0.33 0 0.66 0 1 0 C1.02505615 1.04341553 1.0501123 2.08683105 1.07592773 3.16186523 C1.17081372 7.07017196 1.27082881 10.97833415 1.37231445 14.88647461 C1.41535886 16.57101028 1.45705223 18.25558108 1.49731445 19.94018555 C1.55576429 22.37559554 1.61923423 24.81083358 1.68359375 27.24609375 C1.70030624 27.98709824 1.71701874 28.72810272 1.73423767 29.49156189 C1.7943955 31.6633947 1.88866927 33.83021257 2 36 C2.03368683 36.8172757 2.06737366 37.63455139 2.1020813 38.47659302 C2.15742035 39.28361664 2.2127594 40.09064026 2.26977539 40.92211914 C2.31332657 41.65523819 2.35687775 42.38835724 2.40174866 43.14369202 C2.83685472 45.19720127 2.83685472 45.19720127 4.96751404 46.16111755 C5.63823441 46.43794876 6.30895477 46.71477997 7 47 C7.4125 47.495 7.825 47.99 8.25 48.5 C11.09087461 50.93503538 14.37626381 51.22772835 18 52 C18 52.33 18 52.66 18 53 C39.78 53.495 39.78 53.495 62 54 C62 54.33 62 54.66 62 55 C55.31067983 55.10181508 48.62156113 55.17163915 41.93164062 55.21972656 C39.65812716 55.23978317 37.3846649 55.26703538 35.11132812 55.30175781 C31.83450651 55.35053712 28.55836975 55.37302897 25.28125 55.390625 C23.76827332 55.42159271 23.76827332 55.42159271 22.22473145 55.45318604 C15.09356412 55.45542939 9.49080258 54.37963052 4.16015625 49.21875 C3.79792969 48.6515625 3.43570313 48.084375 3.0625 47.5 C2.68222656 46.9328125 2.30195313 46.365625 1.91015625 45.78125 C0.25820555 42.54824777 -0.12491015 39.47160611 -0.11352539 35.87402344 C-0.11344986 35.07349548 -0.11337433 34.27296753 -0.11329651 33.44818115 C-0.10813522 32.59387512 -0.10297394 31.73956909 -0.09765625 30.859375 C-0.0962413 29.97719299 -0.09482635 29.09501099 -0.09336853 28.18609619 C-0.08778001 25.37402935 -0.07522961 22.5620427 -0.0625 19.75 C-0.05748352 17.84114698 -0.05292087 15.93229272 -0.04882812 14.0234375 C-0.03781434 9.34892753 -0.02055758 4.67447735 0 0 Z " fill="#FEC520" transform="translate(230,264)"/>
<path d="M0 0 C0.33 0 0.66 0 1 0 C1.02505615 1.04341553 1.0501123 2.08683105 1.07592773 3.16186523 C1.17081372 7.07017196 1.27082881 10.97833415 1.37231445 14.88647461 C1.41535886 16.57101028 1.45705223 18.25558108 1.49731445 19.94018555 C1.55576429 22.37559554 1.61923423 24.81083358 1.68359375 27.24609375 C1.70030624 27.98709824 1.71701874 28.72810272 1.73423767 29.49156189 C1.7943955 31.6633947 1.88866927 33.83021257 2 36 C2.03368683 36.8172757 2.06737366 37.63455139 2.1020813 38.47659302 C2.15742035 39.28361664 2.2127594 40.09064026 2.26977539 40.92211914 C2.31332657 41.65523819 2.35687775 42.38835724 2.40174866 43.14369202 C2.83685472 45.19720127 2.83685472 45.19720127 4.96751404 46.16111755 C5.63823441 46.43794876 6.30895477 46.71477997 7 47 C7.4125 47.495 7.825 47.99 8.25 48.5 C11.09087461 50.93503538 14.37626381 51.22772835 18 52 C18 52.33 18 52.66 18 53 C39.78 53.495 39.78 53.495 62 54 C62 54.33 62 54.66 62 55 C55.31067983 55.10181508 48.62156113 55.17163915 41.93164062 55.21972656 C39.65812716 55.23978317 37.3846649 55.26703538 35.11132812 55.30175781 C31.83450651 55.35053712 28.55836975 55.37302897 25.28125 55.390625 C23.76827332 55.42159271 23.76827332 55.42159271 22.22473145 55.45318604 C15.09356412 55.45542939 9.49080258 54.37963052 4.16015625 49.21875 C3.79792969 48.6515625 3.43570313 48.084375 3.0625 47.5 C2.68222656 46.9328125 2.30195312 46.365625 1.91015625 45.78125 C0.25820555 42.54824777 -0.12491015 39.47160611 -0.11352539 35.87402344 C-0.11344986 35.07349548 -0.11337433 34.27296753 -0.11329651 33.44818115 C-0.10813522 32.59387512 -0.10297394 31.73956909 -0.09765625 30.859375 C-0.0962413 29.97719299 -0.09482635 29.09501099 -0.09336853 28.18609619 C-0.08778001 25.37402935 -0.07522961 22.5620427 -0.0625 19.75 C-0.05748352 17.84114698 -0.05292087 15.93229272 -0.04882812 14.0234375 C-0.03781434 9.34892753 -0.02055758 4.67447735 0 0 Z " fill="#FEC520" transform="translate(120,264)"/>
<path d="M0 0 C0.33 0 0.66 0 1 0 C1.02505615 1.04341553 1.0501123 2.08683105 1.07592773 3.16186523 C1.17081372 7.07017196 1.27082881 10.97833415 1.37231445 14.88647461 C1.41535886 16.57101028 1.45705223 18.25558108 1.49731445 19.94018555 C1.55576429 22.37559554 1.61923423 24.81083358 1.68359375 27.24609375 C1.70030624 27.98709824 1.71701874 28.72810272 1.73423767 29.49156189 C1.7943955 31.6633947 1.88866927 33.83021257 2 36 C2.03368683 36.8172757 2.06737366 37.63455139 2.1020813 38.47659302 C2.15742035 39.28361664 2.2127594 40.09064026 2.26977539 40.92211914 C2.31332657 41.65523819 2.35687775 42.38835724 2.40174866 43.14369202 C2.83685472 45.19720127 2.83685472 45.19720127 4.96751404 46.16111755 C5.63823441 46.43794876 6.30895477 46.71477997 7 47 C7.4125 47.495 7.825 47.99 8.25 48.5 C11.09087461 50.93503538 14.37626381 51.22772835 18 52 C18 52.33 18 52.66 18 53 C39.78 53.495 39.78 53.495 62 54 C62 54.33 62 54.66 62 55 C55.31067983 55.10181508 48.62156113 55.17163915 41.93164062 55.21972656 C39.65812716 55.23978317 37.3846649 55.26703538 35.11132812 55.30175781 C31.83450651 55.35053712 28.55836975 55.37302897 25.28125 55.390625 C23.76827332 55.42159271 23.76827332 55.42159271 22.22473145 55.45318604 C15.09356412 55.45542939 9.49080258 54.37963052 4.16015625 49.21875 C3.79792969 48.6515625 3.43570312 48.084375 3.0625 47.5 C2.68222656 46.9328125 2.30195313 46.365625 1.91015625 45.78125 C0.25820555 42.54824777 -0.12491015 39.47160611 -0.11352539 35.87402344 C-0.11344986 35.07349548 -0.11337433 34.27296753 -0.11329651 33.44818115 C-0.10813522 32.59387512 -0.10297394 31.73956909 -0.09765625 30.859375 C-0.0962413 29.97719299 -0.09482635 29.09501099 -0.09336853 28.18609619 C-0.08778001 25.37402935 -0.07522961 22.5620427 -0.0625 19.75 C-0.05748352 17.84114698 -0.05292087 15.93229272 -0.04882812 14.0234375 C-0.03781434 9.34892753 -0.02055758 4.67447735 0 0 Z " fill="#FEC520" transform="translate(340,166)"/>
<path d="M0 0 C0.33 0 0.66 0 1 0 C1.02505615 1.04341553 1.0501123 2.08683105 1.07592773 3.16186523 C1.17081372 7.07017196 1.27082881 10.97833415 1.37231445 14.88647461 C1.41535886 16.57101028 1.45705223 18.25558108 1.49731445 19.94018555 C1.55576429 22.37559554 1.61923423 24.81083358 1.68359375 27.24609375 C1.70030624 27.98709824 1.71701874 28.72810272 1.73423767 29.49156189 C1.7943955 31.6633947 1.88866927 33.83021257 2 36 C2.03368683 36.8172757 2.06737366 37.63455139 2.1020813 38.47659302 C2.15742035 39.28361664 2.2127594 40.09064026 2.26977539 40.92211914 C2.31332657 41.65523819 2.35687775 42.38835724 2.40174866 43.14369202 C2.83685472 45.19720127 2.83685472 45.19720127 4.96751404 46.16111755 C5.63823441 46.43794876 6.30895477 46.71477997 7 47 C7.4125 47.495 7.825 47.99 8.25 48.5 C11.09087461 50.93503538 14.37626381 51.22772835 18 52 C18 52.33 18 52.66 18 53 C39.78 53.495 39.78 53.495 62 54 C62 54.33 62 54.66 62 55 C55.31067983 55.10181508 48.62156113 55.17163915 41.93164062 55.21972656 C39.65812716 55.23978317 37.3846649 55.26703538 35.11132812 55.30175781 C31.83450651 55.35053712 28.55836975 55.37302897 25.28125 55.390625 C23.76827332 55.42159271 23.76827332 55.42159271 22.22473145 55.45318604 C15.09356412 55.45542939 9.49080258 54.37963052 4.16015625 49.21875 C3.79792969 48.6515625 3.43570313 48.084375 3.0625 47.5 C2.68222656 46.9328125 2.30195313 46.365625 1.91015625 45.78125 C0.25820555 42.54824777 -0.12491015 39.47160611 -0.11352539 35.87402344 C-0.11344986 35.07349548 -0.11337433 34.27296753 -0.11329651 33.44818115 C-0.10813522 32.59387512 -0.10297394 31.73956909 -0.09765625 30.859375 C-0.0962413 29.97719299 -0.09482635 29.09501099 -0.09336853 28.18609619 C-0.08778001 25.37402935 -0.07522961 22.5620427 -0.0625 19.75 C-0.05748352 17.84114698 -0.05292087 15.93229272 -0.04882812 14.0234375 C-0.03781434 9.34892753 -0.02055758 4.67447735 0 0 Z " fill="#FEC520" transform="translate(229,166)"/>
<path d="M0 0 C0.33 0 0.66 0 1 0 C1.02505615 1.04341553 1.0501123 2.08683105 1.07592773 3.16186523 C1.17081372 7.07017196 1.27082881 10.97833415 1.37231445 14.88647461 C1.41535886 16.57101028 1.45705223 18.25558108 1.49731445 19.94018555 C1.55576429 22.37559554 1.61923423 24.81083358 1.68359375 27.24609375 C1.70030624 27.98709824 1.71701874 28.72810272 1.73423767 29.49156189 C1.7943955 31.6633947 1.88866927 33.83021257 2 36 C2.03368683 36.8172757 2.06737366 37.63455139 2.1020813 38.47659302 C2.15742035 39.28361664 2.2127594 40.09064026 2.26977539 40.92211914 C2.31332657 41.65523819 2.35687775 42.38835724 2.40174866 43.14369202 C2.83685472 45.19720127 2.83685472 45.19720127 4.96751404 46.16111755 C5.63823441 46.43794876 6.30895477 46.71477997 7 47 C7.4125 47.495 7.825 47.99 8.25 48.5 C11.09087461 50.93503538 14.37626381 51.22772835 18 52 C18 52.33 18 52.66 18 53 C39.78 53.495 39.78 53.495 62 54 C62 54.33 62 54.66 62 55 C55.31067983 55.10181508 48.62156113 55.17163915 41.93164062 55.21972656 C39.65812716 55.23978317 37.3846649 55.26703538 35.11132812 55.30175781 C31.83450651 55.35053712 28.55836975 55.37302897 25.28125 55.390625 C23.76827332 55.42159271 23.76827332 55.42159271 22.22473145 55.45318604 C15.09356412 55.45542939 9.49080258 54.37963052 4.16015625 49.21875 C3.79792969 48.6515625 3.43570313 48.084375 3.0625 47.5 C2.68222656 46.9328125 2.30195312 46.365625 1.91015625 45.78125 C0.25820555 42.54824777 -0.12491015 39.47160611 -0.11352539 35.87402344 C-0.11344986 35.07349548 -0.11337433 34.27296753 -0.11329651 33.44818115 C-0.10813522 32.59387512 -0.10297394 31.73956909 -0.09765625 30.859375 C-0.0962413 29.97719299 -0.09482635 29.09501099 -0.09336853 28.18609619 C-0.08778001 25.37402935 -0.07522961 22.5620427 -0.0625 19.75 C-0.05748352 17.84114698 -0.05292087 15.93229272 -0.04882812 14.0234375 C-0.03781434 9.34892753 -0.02055758 4.67447735 0 0 Z " fill="#FEC520" transform="translate(120,166)"/>
<path d="M0 0 C0.33 0.66 0.66 1.32 1 2 C1.66 2 2.32 2 3 2 C3 8.27 3 14.54 3 21 C3.66 21.33 4.32 21.66 5 22 C5 22.66 5 23.32 5 24 C4.34 24 3.68 24 3 24 C3.66 25.32 4.32 26.64 5 28 C4.67 28.33 4.34 28.66 4 29 C3.63239269 31.32817964 3.29758419 33.6618385 3 36 C3.66 36 4.32 36 5 36 C5 36.66 5 37.32 5 38 C4.34 38 3.68 38 3 38 C2.67 42.29 2.34 46.58 2 51 C1.67 51 1.34 51 1 51 C0.67 34.17 0.34 17.34 0 0 Z " fill="#FEB20D" transform="translate(303,352)"/>
<path d="M0 0 C0.33 0.66 0.66 1.32 1 2 C1.66 2 2.32 2 3 2 C3 8.27 3 14.54 3 21 C3.66 21.33 4.32 21.66 5 22 C5 22.66 5 23.32 5 24 C4.34 24 3.68 24 3 24 C3.66 25.32 4.32 26.64 5 28 C4.67 28.33 4.34 28.66 4 29 C3.63239269 31.32817964 3.29758419 33.6618385 3 36 C3.66 36 4.32 36 5 36 C5 36.66 5 37.32 5 38 C4.34 38 3.68 38 3 38 C2.67 42.29 2.34 46.58 2 51 C1.67 51 1.34 51 1 51 C0.67 34.17 0.34 17.34 0 0 Z " fill="#FEAC0D" transform="translate(193,352)"/>
<path d="M0 0 C0.33 0.66 0.66 1.32 1 2 C1.66 2 2.32 2 3 2 C3 8.27 3 14.54 3 21 C3.66 21.33 4.32 21.66 5 22 C5 22.66 5 23.32 5 24 C4.34 24 3.68 24 3 24 C3.66 25.32 4.32 26.64 5 28 C4.67 28.33 4.34 28.66 4 29 C3.63239269 31.32817964 3.29758419 33.6618385 3 36 C3.66 36 4.32 36 5 36 C5 36.66 5 37.32 5 38 C4.34 38 3.68 38 3 38 C2.67 42.29 2.34 46.58 2 51 C1.67 51 1.34 51 1 51 C0.67 34.17 0.34 17.34 0 0 Z " fill="#FEAC0D" transform="translate(302,157)"/>
<path d="M0 0 C0.33 0.66 0.66 1.32 1 2 C1.66 2 2.32 2 3 2 C3 8.27 3 14.54 3 21 C3.66 21.33 4.32 21.66 5 22 C5 22.66 5 23.32 5 24 C4.34 24 3.68 24 3 24 C3.66 25.32 4.32 26.64 5 28 C4.67 28.33 4.34 28.66 4 29 C3.63239269 31.32817964 3.29758419 33.6618385 3 36 C3.66 36 4.32 36 5 36 C5 36.66 5 37.32 5 38 C4.34 38 3.68 38 3 38 C2.67 42.29 2.34 46.58 2 51 C1.67 51 1.34 51 1 51 C0.67 34.17 0.34 17.34 0 0 Z " fill="#FEAC0D" transform="translate(193,157)"/>
<path d="M0 0 C0.33 0 0.66 0 1 0 C1.33 17.49 1.66 34.98 2 53 C-2.27981984 48.72018016 -1.22459893 40.53457281 -1.38671875 34.70703125 C-1.41224319 33.83858078 -1.43776764 32.97013031 -1.46406555 32.07536316 C-1.51579373 30.25090628 -1.56525155 28.42638376 -1.61254883 26.60180664 C-1.68755928 23.81029377 -1.77815803 21.01954779 -1.86914062 18.22851562 C-1.9176255 16.45054672 -1.96518377 14.67255226 -2.01171875 12.89453125 C-2.04077805 12.0621846 -2.06983734 11.22983795 -2.09977722 10.37226868 C-2.25472353 3.25841429 -2.25472353 3.25841429 0 0 Z " fill="#FEAC09" transform="translate(13,355)"/>
<path d="M0 0 C0.33 0 0.66 0 1 0 C1.33 17.49 1.66 34.98 2 53 C-2.27981984 48.72018016 -1.22459893 40.53457281 -1.38671875 34.70703125 C-1.41224319 33.83858078 -1.43776764 32.97013031 -1.46406555 32.07536316 C-1.51579373 30.25090628 -1.56525155 28.42638376 -1.61254883 26.60180664 C-1.68755928 23.81029377 -1.77815803 21.01954779 -1.86914062 18.22851562 C-1.9176255 16.45054672 -1.96518377 14.67255226 -2.01171875 12.89453125 C-2.04077805 12.0621846 -2.06983734 11.22983795 -2.09977722 10.37226868 C-2.25472353 3.25841429 -2.25472353 3.25841429 0 0 Z " fill="#FEAC09" transform="translate(232,353)"/>
<path d="M0 0 C0.33 0 0.66 0 1 0 C1.33 17.49 1.66 34.98 2 53 C-2.27981984 48.72018016 -1.22459893 40.53457281 -1.38671875 34.70703125 C-1.41224319 33.83858078 -1.43776764 32.97013031 -1.46406555 32.07536316 C-1.51579373 30.25090628 -1.56525155 28.42638376 -1.61254883 26.60180664 C-1.68755928 23.81029377 -1.77815803 21.01954779 -1.86914062 18.22851562 C-1.9176255 16.45054672 -1.96518377 14.67255226 -2.01171875 12.89453125 C-2.04077805 12.0621846 -2.06983734 11.22983795 -2.09977722 10.37226868 C-2.25472353 3.25841429 -2.25472353 3.25841429 0 0 Z " fill="#FEAC09" transform="translate(122,353)"/>
<path d="M0 0 C0.33 0 0.66 0 1 0 C1.33 17.49 1.66 34.98 2 53 C-2.27981984 48.72018016 -1.22459893 40.53457281 -1.38671875 34.70703125 C-1.41224319 33.83858078 -1.43776764 32.97013031 -1.46406555 32.07536316 C-1.51579373 30.25090628 -1.56525155 28.42638376 -1.61254883 26.60180664 C-1.68755928 23.81029377 -1.77815803 21.01954779 -1.86914062 18.22851562 C-1.9176255 16.45054672 -1.96518377 14.67255226 -2.01171875 12.89453125 C-2.04077805 12.0621846 -2.06983734 11.22983795 -2.09977722 10.37226868 C-2.25472353 3.25841429 -2.25472353 3.25841429 0 0 Z " fill="#FEAC09" transform="translate(232,256)"/>
<path d="M0 0 C0.33 0 0.66 0 1 0 C1.33 17.49 1.66 34.98 2 53 C-2.27981984 48.72018016 -1.22459893 40.53457281 -1.38671875 34.70703125 C-1.41224319 33.83858078 -1.43776764 32.97013031 -1.46406555 32.07536316 C-1.51579373 30.25090628 -1.56525155 28.42638376 -1.61254883 26.60180664 C-1.68755928 23.81029377 -1.77815803 21.01954779 -1.86914062 18.22851562 C-1.9176255 16.45054672 -1.96518377 14.67255226 -2.01171875 12.89453125 C-2.04077805 12.0621846 -2.06983734 11.22983795 -2.09977722 10.37226868 C-2.25472353 3.25841429 -2.25472353 3.25841429 0 0 Z " fill="#FEAC09" transform="translate(122,256)"/>
<path d="M0 0 C0.66 0 1.32 0 2 0 C2 6.27 2 12.54 2 19 C2.66 19.33 3.32 19.66 4 20 C4 20.66 4 21.32 4 22 C3.34 22 2.68 22 2 22 C2.66 23.32 3.32 24.64 4 26 C3.67 26.33 3.34 26.66 3 27 C2.63239269 29.32817964 2.29758419 31.6618385 2 34 C2.66 34 3.32 34 4 34 C4 34.66 4 35.32 4 36 C3.34 36 2.68 36 2 36 C1.67 40.29 1.34 44.58 1 49 C0.67 49 0.34 49 0 49 C0 32.83 0 16.66 0 0 Z " fill="#FEAC0E" transform="translate(85,356)"/>
<path d="M0 0 C0.66 0 1.32 0 2 0 C2 6.27 2 12.54 2 19 C2.66 19.33 3.32 19.66 4 20 C4 20.66 4 21.32 4 22 C3.34 22 2.68 22 2 22 C2.66 23.32 3.32 24.64 4 26 C3.67 26.33 3.34 26.66 3 27 C2.63239269 29.32817964 2.29758419 31.6618385 2 34 C2.66 34 3.32 34 4 34 C4 34.66 4 35.32 4 36 C3.34 36 2.68 36 2 36 C1.67 40.29 1.34 44.58 1 49 C0.67 49 0.34 49 0 49 C0 32.83 0 16.66 0 0 Z " fill="#FEAC0E" transform="translate(84,259)"/>
<path d="M0 0 C0.66 0 1.32 0 2 0 C2 6.27 2 12.54 2 19 C2.66 19.33 3.32 19.66 4 20 C4 20.66 4 21.32 4 22 C3.34 22 2.68 22 2 22 C2.66 23.32 3.32 24.64 4 26 C3.67 26.33 3.34 26.66 3 27 C2.63239269 29.32817964 2.29758419 31.6618385 2 34 C2.66 34 3.32 34 4 34 C4 34.66 4 35.32 4 36 C3.34 36 2.68 36 2 36 C1.67 40.29 1.34 44.58 1 49 C0.67 49 0.34 49 0 49 C0 32.83 0 16.66 0 0 Z " fill="#FEB20D" transform="translate(304,257)"/>
<path d="M0 0 C0.66 0 1.32 0 2 0 C2 6.27 2 12.54 2 19 C2.66 19.33 3.32 19.66 4 20 C4 20.66 4 21.32 4 22 C3.34 22 2.68 22 2 22 C2.66 23.32 3.32 24.64 4 26 C3.67 26.33 3.34 26.66 3 27 C2.63239269 29.32817964 2.29758419 31.6618385 2 34 C2.66 34 3.32 34 4 34 C4 34.66 4 35.32 4 36 C3.34 36 2.68 36 2 36 C1.67 40.29 1.34 44.58 1 49 C0.67 49 0.34 49 0 49 C0 32.83 0 16.66 0 0 Z " fill="#FEAC0E" transform="translate(194,257)"/>
<path d="M0 0 C0.66 0 1.32 0 2 0 C2 6.27 2 12.54 2 19 C2.66 19.33 3.32 19.66 4 20 C4 20.66 4 21.32 4 22 C3.34 22 2.68 22 2 22 C2.66 23.32 3.32 24.64 4 26 C3.67 26.33 3.34 26.66 3 27 C2.63239269 29.32817964 2.29758419 31.6618385 2 34 C2.66 34 3.32 34 4 34 C4 34.66 4 35.32 4 36 C3.34 36 2.68 36 2 36 C1.67 40.29 1.34 44.58 1 49 C0.67 49 0.34 49 0 49 C0 32.83 0 16.66 0 0 Z " fill="#FEAC0E" transform="translate(84,161)"/>
<path d="M0 0 C0.99 0 1.98 0 3 0 C3.33 15.84 3.66 31.68 4 48 C-0.28805833 43.71194167 0.80274369 35.60950261 0.68359375 29.78515625 C0.66281265 28.92941513 0.64203156 28.07367401 0.62062073 27.19200134 C0.55570046 24.48224224 0.49651022 21.7723936 0.4375 19.0625 C0.39425995 17.21548586 0.35064399 15.36848048 0.30664062 13.52148438 C0.20007881 9.01441259 0.09865263 4.50725156 0 0 Z " fill="#FEAB09" transform="translate(10,263)"/>
<path d="M0 0 C0.99 0 1.98 0 3 0 C3.33 15.84 3.66 31.68 4 48 C-0.2830117 43.7169883 0.8072746 34.7520055 0.68359375 28.90625 C0.66281265 28.07411987 0.64203156 27.24198975 0.62062073 26.38464355 C0.55583806 23.75650364 0.49657588 21.12827375 0.4375 18.5 C0.39424678 16.70572029 0.35063046 14.9114493 0.30664062 13.1171875 C0.20023106 8.74488115 0.09876837 4.37248537 0 0 Z " fill="#FEAB09" transform="translate(10,165)"/>
<path d="M0 0 C0.33 0 0.66 0 1 0 C1.33 15.84 1.66 31.68 2 48 C-2.18114593 43.81885407 -1.21578242 35.99610107 -1.38671875 30.29296875 C-1.41224319 29.48636307 -1.43776764 28.67975739 -1.46406555 27.84870911 C-1.51574821 26.15709872 -1.56521055 24.46541917 -1.61254883 22.77368164 C-1.68779088 20.17746324 -1.77829922 17.58204171 -1.86914062 14.98632812 C-1.91760384 13.33856896 -1.96516226 11.69078289 -2.01171875 10.04296875 C-2.04077805 9.26592087 -2.06983734 8.48887299 -2.09977722 7.6882782 C-2.14451622 5.7924216 -2.08151644 3.8946316 -2 2 C-1.34 1.34 -0.68 0.68 0 0 Z " fill="#FEAB07" transform="translate(231,163)"/>
<path d="M0 0 C0.33 0 0.66 0 1 0 C1.33 15.84 1.66 31.68 2 48 C-2.18114593 43.81885407 -1.21578242 35.99610107 -1.38671875 30.29296875 C-1.41224319 29.48636307 -1.43776764 28.67975739 -1.46406555 27.84870911 C-1.51574821 26.15709872 -1.56521055 24.46541917 -1.61254883 22.77368164 C-1.68779088 20.17746324 -1.77829922 17.58204171 -1.86914062 14.98632812 C-1.91760384 13.33856896 -1.96516226 11.69078289 -2.01171875 10.04296875 C-2.04077805 9.26592087 -2.06983734 8.48887299 -2.09977722 7.6882782 C-2.14451622 5.7924216 -2.08151644 3.8946316 -2 2 C-1.34 1.34 -0.68 0.68 0 0 Z " fill="#FEAB07" transform="translate(122,163)"/>
<path d="M0 0 C0.66 0 1.32 0 2 0 C2.33 15.51 2.66 31.02 3 47 C-1.19771202 42.80228798 -0.20419201 34.97505464 -0.3515625 29.2578125 C-0.37471527 28.44883514 -0.39786804 27.63985779 -0.42172241 26.80636597 C-0.46904534 25.11054927 -0.51431425 23.41467411 -0.55761719 21.71875 C-0.62534443 19.11174188 -0.70294104 16.50514684 -0.78125 13.8984375 C-0.82611341 12.24741183 -0.87040497 10.5963705 -0.9140625 8.9453125 C-0.93796051 8.16310333 -0.96185852 7.38089417 -0.98648071 6.57498169 C-1.0301221 4.71716151 -1.02055493 2.85821901 -1 1 C-0.67 0.67 -0.34 0.34 0 0 Z " fill="#FEAB07" transform="translate(341,164)"/>
<path d="M0 0 C2.04986301 4.09972603 2.33871381 6.95943892 2.4140625 11.390625 C2.43342865 12.09523865 2.4527948 12.79985229 2.4727478 13.52581787 C2.53232735 15.76709039 2.57884123 18.00841489 2.625 20.25 C2.66319979 21.77345938 2.70225269 23.29689762 2.7421875 24.8203125 C2.83801018 28.54668106 2.92212107 32.27320835 3 36 C3.66 36 4.32 36 5 36 C5 36.66 5 37.32 5 38 C4.34 38 3.68 38 3 38 C2.67 42.29 2.34 46.58 2 51 C1.67 51 1.34 51 1 51 C0.67 34.17 0.34 17.34 0 0 Z " fill="#FEA502" transform="translate(413,157)"/>
<path d="M0 0 C2.50085276 1.15423973 4.6500827 2.4426095 6.9375 4 C9.60894361 5.74461623 12.00723301 6.9437293 15 8 C15 8.66 15 9.32 15 10 C12.69 9.67 10.38 9.34 8 9 C8 8.34 8 7.68 8 7 C7.236875 6.71125 6.47375 6.4225 5.6875 6.125 C3 5 3 5 0 3 C0 2.01 0 1.02 0 0 Z " fill="#FDB210" transform="translate(8,111)"/>
<path d="M0 0 C0.33 0 0.66 0 1 0 C1.33 3.3 1.66 6.6 2 10 C2.66 10 3.32 10 4 10 C4 10.66 4 11.32 4 12 C3.34 12 2.68 12 2 12 C1.67 16.29 1.34 20.58 1 25 C0.67 25 0.34 25 0 25 C0 16.75 0 8.5 0 0 Z " fill="#FE9506" transform="translate(194,378)"/>
<path d="M0 0 C0.33 0 0.66 0 1 0 C1.33 3.3 1.66 6.6 2 10 C2.66 10 3.32 10 4 10 C4 10.66 4 11.32 4 12 C3.34 12 2.68 12 2 12 C1.67 16.29 1.34 20.58 1 25 C0.67 25 0.34 25 0 25 C0 16.75 0 8.5 0 0 Z " fill="#FE9506" transform="translate(85,380)"/>
<path d="M0 0 C0.33 0 0.66 0 1 0 C1.33 3.3 1.66 6.6 2 10 C2.66 10 3.32 10 4 10 C4 10.66 4 11.32 4 12 C3.34 12 2.68 12 2 12 C1.67 16.29 1.34 20.58 1 25 C0.67 25 0.34 25 0 25 C0 16.75 0 8.5 0 0 Z " fill="#FE9506" transform="translate(194,281)"/>
<path d="M0 0 C0.33 0 0.66 0 1 0 C1.33 3.3 1.66 6.6 2 10 C2.66 10 3.32 10 4 10 C4 10.66 4 11.32 4 12 C3.34 12 2.68 12 2 12 C1.67 16.29 1.34 20.58 1 25 C0.67 25 0.34 25 0 25 C0 16.75 0 8.5 0 0 Z " fill="#FE9506" transform="translate(84,283)"/>
<path d="M0 0 C0.33 0 0.66 0 1 0 C1.33 3.3 1.66 6.6 2 10 C2.66 10 3.32 10 4 10 C4 10.66 4 11.32 4 12 C3.34 12 2.68 12 2 12 C1.67 16.29 1.34 20.58 1 25 C0.67 25 0.34 25 0 25 C0 16.75 0 8.5 0 0 Z " fill="#FE9506" transform="translate(84,185)"/>
<path d="M0 0 C0.33 0 0.66 0 1 0 C1.33 3.3 1.66 6.6 2 10 C2.66 10 3.32 10 4 10 C4 10.66 4 11.32 4 12 C3.34 12 2.68 12 2 12 C1.67 16.29 1.34 20.58 1 25 C0.67 25 0.34 25 0 25 C0 16.75 0 8.5 0 0 Z " fill="#FE9506" transform="translate(303,183)"/>
<path d="M0 0 C0.33 0 0.66 0 1 0 C1.33 3.3 1.66 6.6 2 10 C2.66 10 3.32 10 4 10 C4 10.66 4 11.32 4 12 C3.34 12 2.68 12 2 12 C1.67 16.29 1.34 20.58 1 25 C0.67 25 0.34 25 0 25 C0 16.75 0 8.5 0 0 Z " fill="#FE9506" transform="translate(194,183)"/>
<path d="M0 0 C0.66 0.33 1.32 0.66 2 1 C1.69558521 4.55150592 1.02406007 5.97138802 -1.3125 8.75 C-3.74479578 10.78634065 -4.92000563 11.6577784 -8 12 C-6.625 10 -6.625 10 -5 8 C-4.34 8 -3.68 8 -3 8 C-1.92474806 5.34771188 -0.90543849 2.71631546 0 0 Z " fill="#FEB10D" transform="translate(418,104)"/>
<path d="M0 0 C0.33 0 0.66 0 1 0 C1 1.65 1 3.3 1 5 C1.66 5 2.32 5 3 5 C3 5.66 3 6.32 3 7 C2.34 7 1.68 7 1 7 C0.67 11.29 0.34 15.58 0 20 C-0.33 20 -0.66 20 -1 20 C-1.02696009 17.2291017 -1.04681952 14.4584655 -1.0625 11.6875 C-1.07087891 10.90181641 -1.07925781 10.11613281 -1.08789062 9.30664062 C-1.09111328 8.54931641 -1.09433594 7.79199219 -1.09765625 7.01171875 C-1.10289307 6.31522217 -1.10812988 5.61872559 -1.11352539 4.90112305 C-1 3 -1 3 0 0 Z " fill="#FE9409" transform="translate(415,188)"/>
<path d="M0 0 C0.33 0.66 0.66 1.32 1 2 C1.99 2 2.98 2 4 2 C4 2.66 4 3.32 4 4 C3.34 4 2.68 4 2 4 C1.67 8.29 1.34 12.58 1 17 C0.67 17 0.34 17 0 17 C0 11.39 0 5.78 0 0 Z " fill="#FE8B05" transform="translate(304,386)"/>
<path d="M0 0 C0.33 0.66 0.66 1.32 1 2 C1.99 2 2.98 2 4 2 C4 2.66 4 3.32 4 4 C3.34 4 2.68 4 2 4 C1.67 8.29 1.34 12.58 1 17 C0.67 17 0.34 17 0 17 C0 11.39 0 5.78 0 0 Z " fill="#FE8B05" transform="translate(304,289)"/>
<path d="M0 0 C-1.4096347 0.70180531 -2.82807641 1.38593958 -4.25 2.0625 C-5.03890625 2.44535156 -5.8278125 2.82820313 -6.640625 3.22265625 C-9.25993522 4.08564091 -10.44855176 3.93045933 -13 3 C-4.57724436 -1.36735478 -4.57724436 -1.36735478 0 0 Z " fill="#FDB613" transform="translate(410,118)"/>
<path d="M0 0 C0.66 0.33 1.32 0.66 2 1 C1.01 3.97 0.02 6.94 -1 10 C-1.66 9.67 -2.32 9.34 -3 9 C-2.4140625 2.84765625 -2.4140625 2.84765625 -2 1 C-1.34 0.67 -0.68 0.34 0 0 Z " fill="#FEBF21" transform="translate(6,18)"/>
<path d="M0 0 C0.33 0.66 0.66 1.32 1 2 C1.66 2.33 2.32 2.66 3 3 C3 3.66 3 4.32 3 5 C2.34 5 1.68 5 1 5 C1.66 6.32 2.32 7.64 3 9 C2.01 9.99 1.02 10.98 0 12 C0 8.04 0 4.08 0 0 Z " fill="#FFB30E" transform="translate(415,176)"/>
<path d="M0 0 C0.66 0.99 1.32 1.98 2 3 C0.68 4.32 -0.64 5.64 -2 7 C-2.66 6.34 -3.32 5.68 -4 5 C-3.01 4.67 -2.02 4.34 -1 4 C-0.26676204 1.98491642 -0.26676204 1.98491642 0 0 Z " fill="#FDAD0C" transform="translate(84,406)"/>
<path d="M0 0 C1.485 0.99 1.485 0.99 3 2 C2.34 2 1.68 2 1 2 C1.37125 2.556875 1.7425 3.11375 2.125 3.6875 C3 6 3 6 2.125 8.75 C1.568125 9.86375 1.568125 9.86375 1 11 C0.67 11 0.34 11 0 11 C0 7.37 0 3.74 0 0 Z " fill="#FFC710" transform="translate(86,376)"/>
<path d="M0 0 C1.485 0.99 1.485 0.99 3 2 C2.34 2 1.68 2 1 2 C1.37125 2.556875 1.7425 3.11375 2.125 3.6875 C3 6 3 6 2.125 8.75 C1.568125 9.86375 1.568125 9.86375 1 11 C0.67 11 0.34 11 0 11 C0 7.37 0 3.74 0 0 Z " fill="#FFC710" transform="translate(195,374)"/>
<path d="M0 0 C0.66 0.99 1.32 1.98 2 3 C0.68 4.32 -0.64 5.64 -2 7 C-2.66 6.34 -3.32 5.68 -4 5 C-3.01 4.67 -2.02 4.34 -1 4 C-0.26676204 1.98491642 -0.26676204 1.98491642 0 0 Z " fill="#FDAD0C" transform="translate(83,309)"/>
<path d="M0 0 C1.485 0.99 1.485 0.99 3 2 C2.34 2 1.68 2 1 2 C1.37125 2.556875 1.7425 3.11375 2.125 3.6875 C3 6 3 6 2.125 8.75 C1.568125 9.86375 1.568125 9.86375 1 11 C0.67 11 0.34 11 0 11 C0 7.37 0 3.74 0 0 Z " fill="#FFC710" transform="translate(85,279)"/>
<path d="M0 0 C1.485 0.99 1.485 0.99 3 2 C2.34 2 1.68 2 1 2 C1.37125 2.556875 1.7425 3.11375 2.125 3.6875 C3 6 3 6 2.125 8.75 C1.568125 9.86375 1.568125 9.86375 1 11 C0.67 11 0.34 11 0 11 C0 7.37 0 3.74 0 0 Z " fill="#FFC710" transform="translate(195,277)"/>
<path d="M0 0 C0.66 0.99 1.32 1.98 2 3 C0.68 4.32 -0.64 5.64 -2 7 C-2.66 6.34 -3.32 5.68 -4 5 C-3.01 4.67 -2.02 4.34 -1 4 C-0.26676204 1.98491642 -0.26676204 1.98491642 0 0 Z " fill="#FDAD0C" transform="translate(302,209)"/>
<path d="M0 0 C0.66 0.99 1.32 1.98 2 3 C0.68 4.32 -0.64 5.64 -2 7 C-2.66 6.34 -3.32 5.68 -4 5 C-3.01 4.67 -2.02 4.34 -1 4 C-0.26676204 1.98491642 -0.26676204 1.98491642 0 0 Z " fill="#FDAD0C" transform="translate(193,209)"/>
<path d="M0 0 C1.485 0.99 1.485 0.99 3 2 C2.34 2 1.68 2 1 2 C1.37125 2.556875 1.7425 3.11375 2.125 3.6875 C3 6 3 6 2.125 8.75 C1.568125 9.86375 1.568125 9.86375 1 11 C0.67 11 0.34 11 0 11 C0 7.37 0 3.74 0 0 Z " fill="#FFC710" transform="translate(85,181)"/>
<path d="M0 0 C1.485 0.99 1.485 0.99 3 2 C2.34 2 1.68 2 1 2 C1.37125 2.556875 1.7425 3.11375 2.125 3.6875 C3 6 3 6 2.125 8.75 C1.568125 9.86375 1.568125 9.86375 1 11 C0.67 11 0.34 11 0 11 C0 7.37 0 3.74 0 0 Z " fill="#FFC710" transform="translate(304,179)"/>
<path d="M0 0 C1.485 0.99 1.485 0.99 3 2 C2.34 2 1.68 2 1 2 C1.37125 2.556875 1.7425 3.11375 2.125 3.6875 C3 6 3 6 2.125 8.75 C1.568125 9.86375 1.568125 9.86375 1 11 C0.67 11 0.34 11 0 11 C0 7.37 0 3.74 0 0 Z " fill="#FFC710" transform="translate(195,179)"/>
<path d="M0 0 C0.66 0 1.32 0 2 0 C1.67 2.97 1.34 5.94 1 9 C-1.08954032 4.82091936 -1.16552619 4.19589427 0 0 Z " fill="#FEBD1B" transform="translate(420,98)"/>
<path d="" fill="#FFFF00" transform="translate(0,0)"/>
<path d="" fill="#FFFFFF" transform="translate(0,0)"/>
<path d="" fill="#FFFF00" transform="translate(0,0)"/>
<path d="" fill="#FFFF00" transform="translate(0,0)"/>
<path d="" fill="#FFFF00" transform="translate(0,0)"/>
<path d="" fill="#FF0000" transform="translate(0,0)"/>
<path d="" fill="#FF0000" transform="translate(0,0)"/>
<path d="" fill="#FF0000" transform="translate(0,0)"/>
<path d="" fill="#FF0000" transform="translate(0,0)"/>
<path d="" fill="#FFFFFF" transform="translate(0,0)"/>
<path d="" fill="#FFFF00" transform="translate(0,0)"/>
<path d="" fill="#FFFF00" transform="translate(0,0)"/>
</svg>
